<?xml version="1.0" encoding="utf-8"?>
<!-- Generator: Adobe Illustrator 19.2.0, SVG Export Plug-In . SVG Version: 6.00 Build 0)  -->
<svg version="1.1" id="Capa_1" xmlns="http://www.w3.org/2000/svg" xmlns:xlink="http://www.w3.org/1999/xlink" x="0px" y="0px"
	 viewBox="0 0 325 349.7" style="enable-background:new 0 0 325 349.7;" xml:space="preserve">
<style type="text/css">
	.st0{fill:#00858A;}
	.st1{fill:#00B0AF;}
	.st2{fill:none;}
	.st3{fill:#074A4E;}
	.st4{fill:#A3D8C3;}
	.st5{fill:#66C3A2;}
	.st6{fill:#E4236D;}
	.st7{fill:#882346;}
	.st8{fill:#EE3137;}
	.st9{fill:none;stroke:#EE3137;stroke-width:2.8333;stroke-linecap:round;stroke-linejoin:round;}
	.st10{fill:none;stroke:#EE3137;stroke-width:2.8333;stroke-linecap:round;stroke-linejoin:round;stroke-dasharray:8.381,8.381;}
	.st11{fill:#F8984F;}
	.st12{fill:#FFFFFF;}
	.st13{fill:#EF4A8D;}
	.st14{fill:none;stroke:#EE3137;stroke-width:5.3833;stroke-linecap:round;stroke-linejoin:round;stroke-miterlimit:10;}
	.st15{fill:#E77D2C;}
	.st16{fill:none;stroke:#00AD54;stroke-width:4.3434;stroke-linecap:round;stroke-linejoin:round;stroke-miterlimit:10;}
	.st17{fill:#00AD54;}
	.st18{fill:#90432A;}
	.st19{fill:#C8672F;}
	.st20{fill:none;stroke:#E77D2C;stroke-width:4.3434;stroke-linecap:round;stroke-linejoin:round;stroke-miterlimit:10;}
	.st21{fill:#EFDA2B;}
	.st22{clip-path:url(#XMLID_123_);}
	.st23{fill:none;stroke:#E77D2C;stroke-width:2.6682;stroke-linecap:round;stroke-linejoin:round;stroke-miterlimit:10;}
	.st24{fill:#221922;}
	.st25{fill:#E9D939;}
	.st26{fill:#00A6D3;}
	.st27{fill:#EE313B;}
	.st28{fill:#006E40;}
	.st29{fill:#3A3C8F;}
	.st30{fill:none;stroke:#F6893E;stroke-width:4.1173;stroke-linecap:round;stroke-linejoin:round;stroke-miterlimit:10;}
	.st31{fill:#F6893E;}
	.st32{fill:#EE333D;}
	.st33{fill:none;stroke:#F8984F;stroke-width:4.1173;stroke-linecap:round;stroke-linejoin:round;stroke-miterlimit:10;}
	.st34{fill:#F05060;}
	.st35{fill:none;stroke:#E77D2C;stroke-width:4.1173;stroke-linecap:round;stroke-linejoin:round;stroke-miterlimit:10;}
	.st36{fill:#00A855;}
	.st37{fill:none;stroke:#C8672F;stroke-width:3.8042;stroke-linecap:round;stroke-linejoin:round;stroke-miterlimit:10;}
	.st38{fill:none;stroke:#E77D2C;stroke-width:3.8042;stroke-linecap:round;stroke-linejoin:round;stroke-miterlimit:10;}
	.st39{clip-path:url(#XMLID_129_);}
	.st40{fill:none;stroke:#F6893E;stroke-width:2.7121;stroke-linecap:round;stroke-linejoin:round;stroke-miterlimit:10;}
	.st41{fill:#FBB78C;}
	.st42{fill:#101113;}
	.st43{fill:#6A3421;}
	.st44{fill:none;stroke:#F8984F;stroke-width:2.7121;stroke-linecap:round;stroke-linejoin:round;stroke-miterlimit:10;}
	.st45{clip-path:url(#XMLID_130_);}
	.st46{fill:none;stroke:#C8672F;stroke-width:3.0606;stroke-linecap:round;stroke-linejoin:round;stroke-miterlimit:10;}
	.st47{fill:#A2522F;}
	.st48{fill:#F0533B;}
	.st49{fill:#D52C36;}
	.st50{clip-path:url(#XMLID_133_);}
	.st51{fill:none;stroke:#F8984F;stroke-width:3.7725;stroke-linecap:round;stroke-miterlimit:10;}
	.st52{fill:#B32B68;}
	.st53{fill:#3A3C8F;stroke:#F8984F;stroke-width:3.7725;stroke-linecap:round;stroke-miterlimit:10;}
</style>
<g id="XMLID_2_">
	<g id="XMLID_219_">
		<path id="XMLID_365_" class="st0" d="M107.3,71.2c0,0-4.9,14.8-40.7,33.2c0,0,73.1,7.1,72,3.8C128.7,80.8,107.3,71.2,107.3,71.2z"
			/>
		<g id="XMLID_358_">
			<path id="XMLID_364_" class="st1" d="M232.1,343.2l29.3-24.1c0,0-20.9-25.2-37.1-22.5c-16.2,2.7-27.7,33.4-27.7,33.4"/>
			<path id="XMLID_363_" class="st2" d="M224.2,296.6L224.2,296.6c16.2-2.7,37.1,22.5,37.1,22.5l-34.3-5.7L224.2,296.6z"/>
			<path id="XMLID_362_" class="st0" d="M232.1,343.2l-7.8-46.6c0,0,14.4-3.4,37.1,22.5L232.1,343.2z"/>
			<polygon id="XMLID_361_" class="st3" points="261.3,319.1 225.8,305.8 232.1,343.2 			"/>
			<path id="XMLID_360_" class="st4" d="M228,319.2l-2.6-15.6l0.3-0.1c-0.1-0.1-0.1-0.1-0.2-0.2c-0.1-0.1-0.2-0.3-0.2-0.5l-0.2-1
				c0-0.9,0.3-1.7,0.8-2.5c0.5-0.8,1.1-1.4,1.9-2c0-0.3,0-0.7,0.1-1c3.8,0.4,9.9,1.6,19.3,9c-1,0.2-9.2,1.8-16.4-3.5
				c-0.3-0.2-0.5-0.4-0.8-0.6c-0.3,0.4-0.6,0.7-0.8,1.1l1.6-0.5C230.7,301.8,233.8,308.5,228,319.2z"/>
			<path id="XMLID_359_" class="st5" d="M235.1,298.1l-9.3,7.7l-1.6-9.3C224.2,296.6,228.2,295.4,235.1,298.1z"/>
		</g>
		<g id="XMLID_351_">
			<path id="XMLID_357_" class="st1" d="M302.9,259.8c0,0-20.9-25.2-37.1-22.5c-16.2,2.7-27.7,33.4-27.7,33.4l35.6,13.2L302.9,259.8
				z"/>
			<path id="XMLID_356_" class="st2" d="M265.8,237.3L265.8,237.3c16.2-2.7,37.1,22.5,37.1,22.5l-34.3-5.7L265.8,237.3z"/>
			<path id="XMLID_355_" class="st0" d="M273.6,283.9l-7.8-46.6c0,0,14.4-3.4,37.1,22.5L273.6,283.9z"/>
			<polygon id="XMLID_354_" class="st3" points="302.9,259.8 267.3,246.6 273.6,283.9 			"/>
			<path id="XMLID_353_" class="st4" d="M269.6,260l-2.6-15.6l0.3-0.1c-0.1-0.1-0.1-0.1-0.2-0.2c-0.1-0.2-0.2-0.3-0.2-0.5l-0.2-1
				c0-0.9,0.3-1.7,0.8-2.5c0.5-0.8,1.1-1.4,1.9-2c0-0.3,0-0.7,0.1-1c3.8,0.4,9.9,1.6,19.3,9c-1,0.2-9.2,1.8-16.4-3.5
				c-0.3-0.2-0.5-0.4-0.8-0.6c-0.3,0.4-0.6,0.7-0.8,1.1l1.6-0.5C272.3,242.6,275.3,249.2,269.6,260z"/>
			<path id="XMLID_352_" class="st5" d="M276.6,238.9l-9.3,7.7l-1.6-9.3C265.8,237.3,269.8,236.2,276.6,238.9z"/>
		</g>
		<g id="XMLID_344_">
			<path id="XMLID_350_" class="st1" d="M81.1,236.9c0,0,11.5-30.6,27.7-33.4C125,200.7,146,226,146,226l-29.3,24.1L81.1,236.9z"/>
			<path id="XMLID_349_" class="st2" d="M108.8,203.5L108.8,203.5c-16.2,2.8-27.7,33.4-27.7,33.4l30.6-16.6L108.8,203.5z"/>
			<path id="XMLID_348_" class="st0" d="M116.7,250.1l-7.8-46.6c0,0-14.7,1.5-27.7,33.4L116.7,250.1z"/>
			<polygon id="XMLID_347_" class="st3" points="81.1,236.9 110.4,212.8 116.7,250.1 			"/>
			<path id="XMLID_346_" class="st4" d="M112.7,226.2l-2.6-15.6l-0.3,0c0-0.1,0.1-0.2,0.1-0.3c0-0.2,0.1-0.3,0.1-0.5l-0.2-1
				c-0.3-0.8-0.9-1.5-1.6-2.1c-0.7-0.6-1.5-1-2.4-1.3c-0.1-0.3-0.3-0.7-0.4-0.9c-3.4,1.6-8.8,4.8-15.3,14.8c1-0.1,9.3-1.3,14.4-8.7
				c0.2-0.3,0.4-0.6,0.5-0.8c0.4,0.2,0.8,0.5,1.1,0.8l-1.7,0C104.4,210.6,103.7,217.9,112.7,226.2z"/>
			<path id="XMLID_345_" class="st5" d="M99.1,208.5l11.3,4.3l-1.6-9.3C108.8,203.5,104.7,203.8,99.1,208.5z"/>
		</g>
		<g id="XMLID_337_">
			<path id="XMLID_343_" class="st1" d="M119.1,293.8c0,0,11.5-30.6,27.7-33.4s37.1,22.5,37.1,22.5L154.7,307L119.1,293.8z"/>
			<path id="XMLID_342_" class="st2" d="M146.8,260.4L146.8,260.4c-16.2,2.8-27.7,33.4-27.7,33.4l30.6-16.6L146.8,260.4z"/>
			<path id="XMLID_341_" class="st0" d="M154.7,307l-7.8-46.6c0,0-14.7,1.5-27.7,33.4L154.7,307z"/>
			<polygon id="XMLID_340_" class="st3" points="119.1,293.8 148.4,269.7 154.7,307 			"/>
			<path id="XMLID_339_" class="st4" d="M150.6,283.1l-2.6-15.6l-0.3,0c0-0.1,0.1-0.2,0.1-0.3c0-0.2,0.1-0.3,0.1-0.5l-0.2-1
				c-0.3-0.8-0.9-1.5-1.6-2.1c-0.7-0.6-1.5-1-2.4-1.3c-0.1-0.3-0.3-0.7-0.4-0.9c-3.4,1.6-8.8,4.8-15.3,14.8c1-0.1,9.3-1.3,14.4-8.7
				c0.2-0.3,0.4-0.6,0.5-0.8c0.4,0.2,0.8,0.5,1.1,0.8l-1.7,0C142.4,267.5,141.7,274.8,150.6,283.1z"/>
			<path id="XMLID_338_" class="st5" d="M137.1,265.5l11.3,4.3l-1.6-9.3C146.8,260.4,142.7,260.7,137.1,265.5z"/>
		</g>
		<g id="XMLID_316_">
			<g id="XMLID_335_">
				<polygon id="XMLID_336_" class="st6" points="261.9,251.7 263.6,248.3 188.9,213.1 187.2,216.5 				"/>
			</g>
			<g id="XMLID_333_">
				<polygon id="XMLID_334_" class="st6" points="269.9,226.7 270.4,223 117.7,203.3 117.2,207 				"/>
			</g>
			<g id="XMLID_331_">
				
					<rect id="XMLID_332_" x="124.5" y="210.6" transform="matrix(0.982 -0.1887 0.1887 0.982 -36.5363 41.1075)" class="st6" width="146.2" height="3.8"/>
			</g>
			<g id="XMLID_329_">
				<polygon id="XMLID_330_" class="st6" points="136.5,244.6 261.3,175.7 259.5,172.4 134.7,241.3 				"/>
			</g>
			<g id="XMLID_327_">
				<polygon id="XMLID_328_" class="st6" points="148.8,258.8 245.6,154.7 242.8,152.1 146.1,256.3 				"/>
			</g>
			<g id="XMLID_325_">
				<polygon id="XMLID_326_" class="st6" points="163.9,271.8 224.1,139.7 220.6,138.1 160.5,270.2 				"/>
			</g>
			<g id="XMLID_323_">
				<polygon id="XMLID_324_" class="st6" points="181.7,283.2 198.9,132.1 195.1,131.7 178,282.7 				"/>
			</g>
			<g id="XMLID_321_">
				
					<rect id="XMLID_322_" x="185.8" y="131.4" transform="matrix(0.9789 -0.2043 0.2043 0.9789 -39.8263 42.8713)" class="st6" width="3.8" height="165.8"/>
			</g>
			<g id="XMLID_319_">
				<polygon id="XMLID_320_" class="st6" points="231.7,294.3 235,292.4 147.8,141.6 144.5,143.4 				"/>
			</g>
			<g id="XMLID_317_">
				<polygon id="XMLID_318_" class="st6" points="255.2,277 257.7,274.2 127,157.6 124.5,160.4 				"/>
			</g>
		</g>
		<g id="XMLID_312_">
			<path id="XMLID_313_" class="st7" d="M200.1,295.7l0.9-2.4L200.1,295.7c-23.1-8.6-43.6-23.1-59.3-42
				c-15.7-18.9-26.2-41.7-30.3-66c-3-17.5,3.4-34.7,17.1-46c13.7-11.3,31.9-14.4,48.5-8.2l0.2,0.1c23.1,8.6,43.6,23.1,59.3,42.1
				c15.7,18.9,26.1,41.8,30.2,66c2.9,17.5-3.5,34.6-17.2,45.9c-6.9,5.6-14.8,9.2-23.1,10.6C217.1,299.6,208.4,298.8,200.1,295.7z
				 M130.8,145.5c-12.3,10.2-18.1,25.6-15.4,41.3c8.1,47.4,41.2,87.3,86.4,104.1l0,0c7.5,2.8,15.3,3.5,22.7,2.2
				c7.5-1.3,14.6-4.5,20.8-9.5c12.3-10.1,18.1-25.5,15.4-41.2c-8-47.5-41-87.4-86.2-104.2l-0.2-0.1c-7.5-2.8-15.3-3.5-22.7-2.2
				C144.1,137.2,136.9,140.5,130.8,145.5z"/>
		</g>
		<path id="XMLID_311_" class="st8" d="M314.1,204.9c0,0-40.6,60.6-137.3,25.5c-45.2-16.4-89-50.7-114-79.7
			c-17.8-20.7-24.8-37.8-18.4-45.7L314.1,204.9z"/>
		<g id="XMLID_305_">
			<g>
				<path class="st9" d="M45.3,108.9c0,0,0.7,0.7,3.5,2.4"/>
				<path class="st10" d="M56.2,115.3c16.5,8.6,57.3,26.8,155.5,61.1c55.4,19.4,81.4,25.2,93,26.8"/>
				<path class="st9" d="M308.8,203.7c3.2,0.3,4.2,0,4.2,0"/>
			</g>
		</g>
		<path id="XMLID_304_" class="st11" d="M44.5,105c0.3-0.2,0.5-0.5,0.8-0.7l0.5,0.2c0,0,56.6-24.3,174,8.5
			c98.3,27.5,97.7,88.6,97.7,88.6l-3.3,3.2c0,0-0.1,0.1-0.1,0.1c-47.5,39.2-161.7-4.4-161.7-4.4C74.9,172.7,29,117.9,44.5,105z"/>
		<g id="XMLID_301_">
			<polygon id="XMLID_303_" class="st3" points="55.3,62.9 77.8,113.8 75,115.7 36.3,98.6 21.7,81.2 12.9,49.5 15.8,47.9 			"/>
			<polygon id="XMLID_302_" class="st0" points="52.5,64.8 75,115.7 33.5,100.5 18.9,83 13,49.7 			"/>
		</g>
		<path id="XMLID_300_" class="st3" d="M52.4,121.3c0,0-6.7,10.8-36.5,26.7c-0.7,0.4,1.2,2.6,0.5,2.9c0,0,41.1,19.9,67.1,1.1
			L52.4,121.3z"/>
		<path id="XMLID_299_" class="st0" d="M51.9,118.4c0,0-4.3,13.3-36,29.6c0,0,41.1,19.9,67.1,1.1L51.9,118.4z"/>
		<path id="XMLID_298_" class="st11" d="M44,105.5c0,0,0.2,1,0.3,1.5c0.5,1.4,1.1,1.9,1.1,1.9s14.8,14.5,166.3,67.6
			c86.7,30.4,101.4,27.3,101.4,27.3l0,0c0,0,1.5-0.1,1.9-0.3c0.7-0.3,2.6-1.8,2.6-1.8c-1,1.1-2.1,2.2-3.4,3.3
			c-47.5,39.2-161.7-4.4-161.7-4.4C75.9,173,30.1,119.2,44,105.5z"/>
		<path id="XMLID_297_" class="st7" d="M254.1,184.1l-1.4-8.5c-1.1-6.6,1.4-13.4,6.6-17.6l0,0c3.8-3.1,9.5-1,10.3,3.8l1.6,9.7
			C268.7,176.6,262.4,181.3,254.1,184.1z"/>
		<path id="XMLID_295_" class="st7" d="M205.6,167.9l-1.4-8.5c-1.1-6.6,1.4-13.4,6.6-17.6l0,0c3.8-3.1,9.5-1,10.3,3.8l1.6,9.7
			C220.1,160.4,213.8,165.1,205.6,167.9z"/>
		<path id="XMLID_293_" class="st7" d="M154.9,155.7l-1.4-8.5c-1.1-6.6,1.4-13.4,6.6-17.6h0c3.8-3.1,9.5-1,10.3,3.8l1.6,9.7
			C169.4,148.2,163.1,152.9,154.9,155.7z"/>
		<g id="XMLID_283_">
			<path id="XMLID_284_" class="st8" d="M217.4,200.6c-8.3-2.8-16.3-11.9-22-24.9c-3.3-7.5-5.5-15.8-6.7-24
				c-0.9-0.2-1.8-0.4-2.8-0.6c-0.5,10.5-3,19.6-7.5,25.6c-4.9,6.6-11.5,8.9-18.8,6.6c-10.9-3.5-20.6-11.5-28-23.2
				c-5.8-9.1-9.7-19.8-11.3-30.6c-13.5-6.9-23.8-14.6-30.8-23.2c-8.8-10.7-14-23.3-15.2-36.5c-0.9-10.9,0.9-21.9,5.3-31
				c4.6-9.6,11.3-15.2,17.7-15.1c4.7,0.1,13.9,3.6,40.1,33.4c4.2,4.7,8.3,9.6,12.1,14.2c11.8-4.5,25.8-3.6,40.7,2.6
				c9.3,3.9,18.8,9.8,27.5,17.1c2.2-0.8,4.6-1.4,7-1.9c30.5-6.3,52,8.3,64.6,21.5c14.1,14.8,22.2,33.4,23.9,41.5
				c1.7,7.8-0.8,16.2-6.8,22.8c-5.5,6.1-12.8,9.4-19.1,8.7c-5-0.5-21.7-6.1-39.3-12.3c-2.3,9.9-6.2,18.5-11.7,24
				c-3.2,3.3-6.8,5.2-10.6,5.9C223.2,201.8,220.3,201.6,217.4,200.6z M199.1,153.5c-0.6-0.1-1.8-0.3-3.6-0.6
				c1.1,7,3.1,13.9,5.9,20.2c4.9,11.1,11.6,19.1,18.1,21.3c4.5,1.5,8.5,0.4,12.4-3.5c4.7-4.8,8.2-12.7,10.1-21.6
				C222.7,162.4,203.7,155.2,199.1,153.5z M226.2,95.5c-0.9,0.2-1.8,0.4-2.7,0.6c0.6,0.6,1.2,1.2,1.9,1.8
				c10.1,10.1,17.7,21,21.2,30.8c3.9,10.8,4.6,24,2.9,36.2c18,6.4,34.4,11.9,38.8,12.3c4.2,0.5,9.6-2.1,13.6-6.6
				c4.6-5.1,6.5-11.3,5.3-17.1c-1.6-7.5-9.1-24.6-22.3-38.5c-16.1-16.9-34.9-23.7-56-20.1C227.8,95.2,227,95.4,226.2,95.5z
				 M155.8,143.4c-10.4-3.2-19.8-6.7-28.1-10.4c4.4,20.9,18,39,34.1,44.2c4.6,1.5,8.3,0.1,11.5-4.3c3.6-4.8,5.9-13.2,6.2-23.2
				C172.6,148.1,164.4,146.1,155.8,143.4z M194.6,135.4c-0.2,3.5-0.2,7.1,0.1,10.8c3.5,0.6,5.6,0.9,5.7,1c0.2,0,0.5,0.1,0.7,0.2
				c9.4,3.6,25.9,9.7,42,15.5c1.4-10.8,0.6-22.5-2.7-31.8c-3.5-9.8-12.1-21.9-23.7-32.3C199.3,106.7,195.3,124.5,194.6,135.4z
				 M187.9,80c-8.9-3.7-21.6-7-33.8-3.3c8,9.8,14.2,18.1,16.6,21.5c9.9,13.9,14.7,31,15.3,46.2c0.7,0.2,1.4,0.3,2.1,0.4
				c-0.2-3.4-0.2-6.7,0-9.9c0.7-11.2,4-21.2,9.5-28.8c3.7-5.1,8.2-9.1,13.7-12.1C204.2,88.4,196.2,83.5,187.9,80z M126.3,122.9
				c0,0.8,0.1,1.5,0.2,2.3c17.9,8.7,38.2,14.4,52.9,17.8c-0.8-13.2-4.9-28.1-14-41c-2.8-3.9-9.5-12.7-17.6-22.7
				C132.9,87.1,125.1,102.9,126.3,122.9z M132.7,61.5c-25.4-28.8-33.4-31.1-35.3-31.2c-3.1,0-7.9,3.5-11.7,11.4
				c-7,14.3-8.8,38.8,9,60.5c6.2,7.6,15.1,14,25,19.5c-0.4-10.2,1.4-19.8,5.3-27.9c4.1-8.5,10.3-15.1,18.5-19.7
				C140.1,70,136.4,65.7,132.7,61.5z"/>
		</g>
		<path id="XMLID_275_" class="st1" d="M170.5,145.4c-0.3,0.5-0.7,0.9-1.1,1.4C169.8,146.4,170.2,145.9,170.5,145.4z M168.6,147.7
			c0.3-0.3,0.5-0.6,0.8-0.8C169.1,147.1,168.9,147.4,168.6,147.7z M171.1,144.5c-0.2,0.3-0.4,0.6-0.6,0.9
			C170.7,145.1,170.9,144.8,171.1,144.5z M163.2,151.8c-2.5,1.5-5.3,2.8-8.4,3.9C158,154.6,160.8,153.3,163.2,151.8z M166.1,149.8
			c0.9-0.7,1.7-1.4,2.4-2.1C167.8,148.4,167,149.1,166.1,149.8z M115.7,146.3c1.5,8.9,15.5,14,31.4,11.3c2.7-0.5,5.3-1.1,7.8-2
			l-1.4-8.5c-1.1-6.6,1.4-13.4,6.6-17.6h0c3.8-3.1,9.5-1,10.3,3.8l1.6,9.7c-0.2,0.5-0.5,0.9-0.8,1.4c1.6-2.5,2.3-5.2,1.9-7.8
			l-4.7-27.9l-29.5,0l-20.4,8.4l-7.4,1.2l4.5,26.8C115.6,145.6,115.6,145.9,115.7,146.3z M166.1,149.9c-0.9,0.7-1.8,1.3-2.8,1.9
			C164.3,151.2,165.2,150.5,166.1,149.9z"/>
		<g id="XMLID_267_">
			<path id="XMLID_274_" class="st12" d="M130.4,133.7c0,0-2.6-9.8-2.1-15.7c0.5-5.9,6.6-33.8,6.6-33.8s0,0,0,0l0,0l8.3,49.2
				C138.9,134.1,134.6,134.2,130.4,133.7z"/>
			<path id="XMLID_273_" class="st0" d="M134.8,84.2C134.8,84.2,134.8,84.2,134.8,84.2c0,0-6,27.8-6.6,33.8
				c-0.5,5.9,2.1,15.7,2.1,15.7c-3.3-0.4-6.5-1.2-9.6-2.4l0,0c-1.1-0.4-2.1-0.9-3.1-1.6l0,0c-1.4-4.4-2.6-6.9,0.4-14.3
				C121,108.2,134.4,85,134.8,84.2z"/>
			<path id="XMLID_272_" class="st12" d="M117.7,129.7L117.7,129.7c-1.4-4.4-2.6-6.9,0.4-14.3c3-7.3,16.4-30.5,16.8-31.2
				c-8.6,12.1-12.1,13.8-19.6,22.9c-0.4,0.5-0.9,1-1.3,1.5c-3.7,5.1-3.7,11.8-0.5,16.8C114.5,127.1,115.9,128.6,117.7,129.7
				L117.7,129.7z"/>
			<g id="XMLID_268_">
				<path id="XMLID_271_" class="st0" d="M155.2,129.5c0,0-0.7-10.1-3.1-15.5s-17.3-29.8-17.3-29.8s0,0,0,0l0,0l8.3,49.2
					C147.3,132.7,151.4,131.4,155.2,129.5z"/>
				<path id="XMLID_270_" class="st12" d="M134.8,84.2C134.8,84.2,134.8,84.2,134.8,84.2c0,0,14.8,24.3,17.2,29.7s3.1,15.5,3.1,15.5
					c2.9-1.5,5.7-3.3,8.3-5.4l0,0c0.9-0.8,1.7-1.6,2.4-2.5l0,0c-0.1-4.6,0.2-7.4-5.1-13.4C155.7,102.3,135.5,84.8,134.8,84.2z"/>
				<path id="XMLID_269_" class="st0" d="M166,121.6L166,121.6c-0.1-4.6,0.2-7.4-5.1-13.4c-5.2-5.9-25.4-23.5-26.1-24
					c12,8.6,15.9,9.1,26,15.2c0.6,0.4,1.2,0.7,1.8,1c5.2,3.6,7.4,9.9,6,15.7C168.1,118.1,167.2,120,166,121.6L166,121.6z"/>
			</g>
		</g>
		<path id="XMLID_259_" class="st6" d="M221.2,157.7c-0.3,0.5-0.7,0.9-1.1,1.4C220.5,158.6,220.9,158.2,221.2,157.7z M219.3,159.9
			c0.3-0.3,0.5-0.6,0.8-0.8C219.8,159.4,219.5,159.6,219.3,159.9z M221.8,156.8c-0.2,0.3-0.4,0.6-0.6,0.9
			C221.4,157.4,221.6,157.1,221.8,156.8z M213.9,164.1c-2.5,1.5-5.3,2.8-8.4,3.9C208.7,166.9,211.5,165.6,213.9,164.1z M216.8,162.1
			c0.9-0.7,1.7-1.4,2.4-2.1C218.5,160.7,217.7,161.4,216.8,162.1z M166.4,158.6c1.5,8.9,15.5,14,31.4,11.3c2.7-0.5,5.3-1.1,7.8-2
			l-1.4-8.5c-1.1-6.6,1.4-13.4,6.6-17.6l0,0c3.8-3.1,9.5-1,10.3,3.8l1.6,9.7c-0.2,0.5-0.5,0.9-0.8,1.4c1.6-2.5,2.3-5.2,1.9-7.8
			L219,121l-29.5,0l-20.4,8.4l-7.4,1.2l4.5,26.8C166.3,157.8,166.3,158.2,166.4,158.6z M216.8,162.1c-0.9,0.7-1.8,1.3-2.8,1.9
			C215,163.4,215.9,162.8,216.8,162.1z"/>
		<g id="XMLID_251_">
			<path id="XMLID_258_" class="st13" d="M181.1,145.9c0,0-2.6-9.8-2.1-15.7c0.5-5.9,6.6-33.8,6.6-33.8s0,0,0,0l0,0l8.3,49.2
				C189.6,146.4,185.3,146.5,181.1,145.9z"/>
			<path id="XMLID_257_" class="st12" d="M185.5,96.5C185.5,96.5,185.5,96.5,185.5,96.5c0,0-6,27.8-6.6,33.8
				c-0.5,5.9,2.1,15.7,2.1,15.7c-3.3-0.4-6.5-1.2-9.6-2.4l0,0c-1.1-0.4-2.1-0.9-3.1-1.6l0,0c-1.4-4.4-2.6-6.9,0.4-14.3
				C171.7,120.4,185.1,97.2,185.5,96.5z"/>
			<path id="XMLID_256_" class="st13" d="M168.3,142L168.3,142c-1.4-4.4-2.6-6.9,0.4-14.3c3-7.3,16.4-30.5,16.8-31.2
				c-8.6,12.1-12.1,13.8-19.6,22.9c-0.4,0.5-0.9,1-1.3,1.5c-3.7,5.1-3.7,11.8-0.5,16.8C165.2,139.4,166.6,140.8,168.3,142L168.3,142
				z"/>
			<g id="XMLID_252_">
				<path id="XMLID_255_" class="st12" d="M205.9,141.7c0,0-0.7-10.1-3.1-15.5c-2.4-5.4-17.3-29.8-17.3-29.8s0,0,0,0l0,0l8.3,49.2
					C198,145,202.1,143.7,205.9,141.7z"/>
				<path id="XMLID_254_" class="st13" d="M185.5,96.5C185.5,96.5,185.5,96.5,185.5,96.5c0,0,14.8,24.3,17.2,29.7
					c2.4,5.4,3.1,15.5,3.1,15.5c2.9-1.5,5.7-3.3,8.3-5.4l0,0c0.9-0.8,1.7-1.6,2.4-2.5l0,0c-0.1-4.6,0.2-7.4-5.1-13.4
					C206.4,114.6,186.2,97,185.5,96.5z"/>
				<path id="XMLID_253_" class="st12" d="M216.7,133.9L216.7,133.9c-0.1-4.6,0.2-7.4-5.1-13.4c-5.2-5.9-25.4-23.5-26.1-24
					c12,8.6,15.9,9.1,26,15.2c0.6,0.4,1.2,0.7,1.8,1c5.2,3.6,7.4,9.9,6,15.7C218.8,130.3,217.9,132.2,216.7,133.9L216.7,133.9z"/>
			</g>
		</g>
		<path id="XMLID_250_" class="st3" d="M32.2,58"/>
		<g id="XMLID_242_">
			<path id="XMLID_249_" class="st1" d="M268.7,175.2c0.4-0.4,0.8-0.9,1.1-1.4C269.4,174.3,269,174.7,268.7,175.2z"/>
			<path id="XMLID_248_" class="st1" d="M267.8,176c0.3-0.3,0.5-0.6,0.8-0.8C268.4,175.5,268.1,175.8,267.8,176z"/>
			<path id="XMLID_247_" class="st1" d="M269.8,173.8c0.2-0.3,0.4-0.6,0.6-0.9C270.2,173.2,270,173.5,269.8,173.8z"/>
			<path id="XMLID_246_" class="st1" d="M254.1,184.1c3.1-1,5.9-2.4,8.4-3.9C260,181.7,257.2,183,254.1,184.1z"/>
			<path id="XMLID_245_" class="st1" d="M265.4,178.2c0.9-0.7,1.7-1.4,2.4-2.1C267.1,176.8,266.3,177.5,265.4,178.2z"/>
			<path id="XMLID_244_" class="st1" d="M214.8,173.6l-4.5-26.8l7.4-1.2l20.4-8.4l29.5,0l4.7,27.9c0.4,2.6-0.3,5.3-1.9,7.8
				c0.3-0.5,0.6-0.9,0.8-1.4l-1.6-9.7c-0.8-4.8-6.5-6.9-10.3-3.8l0,0c-5.2,4.3-7.7,11-6.6,17.6l1.4,8.5c-2.4,0.8-5,1.5-7.8,2
				c-15.8,2.7-29.9-2.4-31.4-11.3C214.9,174.3,214.9,173.9,214.8,173.6z"/>
			<path id="XMLID_243_" class="st1" d="M262.5,180.2c1-0.6,2-1.3,2.8-1.9C264.5,178.9,263.5,179.6,262.5,180.2z"/>
		</g>
		<g id="XMLID_234_">
			<path id="XMLID_241_" class="st0" d="M229.6,162.1c0,0-2.6-9.8-2.1-15.7c0.5-5.9,6.6-33.8,6.6-33.8s0,0,0,0l0,0l8.3,49.2
				C238.2,162.5,233.9,162.6,229.6,162.1z"/>
			<path id="XMLID_240_" class="st12" d="M234.1,112.6C234.1,112.6,234.1,112.6,234.1,112.6c0,0-6,27.8-6.6,33.8
				c-0.5,5.9,2.1,15.7,2.1,15.7c-3.3-0.4-6.5-1.2-9.6-2.4l0,0c-1.1-0.4-2.1-0.9-3.1-1.6l0,0c-1.4-4.4-2.6-6.9,0.4-14.3
				C220.3,136.6,233.7,113.3,234.1,112.6z"/>
			<path id="XMLID_239_" class="st0" d="M216.9,158.1L216.9,158.1c-1.4-4.4-2.6-6.9,0.4-14.3c3-7.3,16.4-30.5,16.8-31.2
				c-8.6,12.1-12.1,13.8-19.6,22.9c-0.4,0.5-0.9,1-1.3,1.5c-3.7,5.1-3.7,11.8-0.5,16.8C213.7,155.5,215.2,157,216.9,158.1
				L216.9,158.1z"/>
			<g id="XMLID_235_">
				<path id="XMLID_238_" class="st12" d="M254.5,157.9c0,0-0.7-10.1-3.1-15.5c-2.4-5.4-17.3-29.8-17.3-29.8s0,0,0,0l0,0l8.3,49.2
					C246.5,161.1,250.6,159.8,254.5,157.9z"/>
				<path id="XMLID_237_" class="st0" d="M234.1,112.6C234.1,112.6,234.1,112.6,234.1,112.6c0,0,14.8,24.3,17.2,29.7
					c2.4,5.4,3.1,15.5,3.1,15.5c2.9-1.5,5.7-3.3,8.3-5.4l0,0c0.9-0.8,1.7-1.6,2.4-2.5l0,0c-0.1-4.6,0.2-7.4-5.1-13.4
					C255,130.7,234.7,113.2,234.1,112.6z"/>
				<path id="XMLID_236_" class="st12" d="M265.2,150L265.2,150c-0.1-4.6,0.2-7.4-5.1-13.4c-5.2-5.9-25.4-23.5-26.1-24
					c12,8.6,15.9,9.1,26,15.2c0.6,0.4,1.2,0.7,1.8,1c5.2,3.6,7.4,9.9,6,15.7C267.4,146.5,266.5,148.3,265.2,150L265.2,150z"/>
			</g>
		</g>
		<path id="XMLID_233_" class="st14" d="M218.5,197.5c-27.1-9.3-47.4-94,7.1-105.1"/>
		<path id="XMLID_232_" class="st14" d="M160.8,180.2c-38.1-12.3-55.8-84.6-12.6-104.7"/>
		<g id="XMLID_228_">
			<polygon id="XMLID_231_" class="st7" points="62.2,54.8 80.2,61.5 94.7,49.4 77,42.8 			"/>
			<polygon id="XMLID_230_" class="st11" points="65.4,73.7 62.2,54.8 80.2,61.5 83.2,80.3 			"/>
			<polygon id="XMLID_229_" class="st15" points="94.7,49.4 97.8,68.1 83.2,80.3 80.2,61.5 			"/>
		</g>
		<g id="XMLID_224_">
			<polygon id="XMLID_227_" class="st7" points="260.1,97.5 277.9,104.1 292.3,92.1 274.8,85.6 			"/>
			<polygon id="XMLID_226_" class="st11" points="263.3,116.1 260.1,97.5 277.9,104.1 280.9,122.7 			"/>
			<polygon id="XMLID_225_" class="st15" points="292.3,92.1 295.4,110.6 280.9,122.7 277.9,104.1 			"/>
		</g>
		<g id="XMLID_220_">
			<polygon id="XMLID_223_" class="st7" points="130.2,36 141.9,51.2 160.8,48.6 149.3,33.6 			"/>
			<polygon id="XMLID_222_" class="st11" points="122.8,53.7 130.2,36 141.9,51.2 134.4,68.9 			"/>
			<polygon id="XMLID_221_" class="st15" points="160.8,48.6 153.5,66.3 134.4,68.9 141.9,51.2 			"/>
		</g>
	</g>
	<g id="XMLID_207_">
		<path id="XMLID_218_" class="st16" d="M280.2,88.1c0.7,0,1.2-0.7,1.2-1.4c0.1-0.7-0.2-1.3-0.6-1.9c-1.1-1.9-2.7-3.4-4.6-4.4
			c-2.7-1.4-6.2-1.8-8.2-4.1c-0.8-0.9-1.3-2-2-2.9c-0.7-0.9-1.7-1.8-2.9-1.7"/>
		<g id="XMLID_215_">
			<path class="st17" d="M275.7,85.2c0,0,0.2,0,0.6,0.1c0.3,0.1,0.8,0.2,1.3,0.3c0.5,0.2,1,0.4,1.4,0.6c0.4,0.3,0.8,0.6,1,0.9
				c0.5,0.7,0.8,1.6,0.8,2.6c0,1-0.1,2.1,0,3.1c0.1,0.5,0.1,1.1,0.1,1.6c0.1,0.5-0.1,1.1-0.2,1.6c-0.1,1,0.2,1.9,0.3,2.7
				c0.1,0.8-0.2,1.5-0.4,2c-0.1,0.1-0.1,0.2-0.2,0.3c-0.1,0.1-0.4,0.2-0.9,0.4c-0.2,0.1-0.5,0.1-0.7,0.2c-0.3,0.1-0.6,0.1-0.8,0.2
				c-0.4,0.1-0.6,0.2-0.6,0.2c-0.1,0-0.3,0.1-0.4,0.1c0,0-0.2,0-0.7,0.1c-0.2,0-0.5,0-0.8,0.1c-0.2,0-0.5,0-0.7,0
				c-0.5,0-0.8,0-1-0.1c-0.1-0.1-0.2-0.2-0.3-0.3c-0.4-0.4-0.9-1-1-1.8c-0.2-0.8-0.2-1.7-0.6-2.6c-0.2-0.5-0.6-0.9-0.7-1.4
				c-0.2-0.5-0.3-1-0.4-1.5c-0.2-1-0.7-2-1-3c-0.3-0.9-0.3-1.9-0.1-2.7c0.1-0.4,0.3-0.8,0.7-1.2c0.4-0.4,0.7-0.7,1.2-1
				c0.4-0.3,0.9-0.6,1.1-0.7c0.3-0.2,0.5-0.3,0.5-0.3C274.2,85.2,274.9,85.1,275.7,85.2z"/>
		</g>
		<path id="XMLID_214_" class="st18" d="M271.4,82l0.7,4.2c-0.1,0.5,1.8,1.2,2.6,1c1.4-0.2,2.1-1.8,2.1-1.8l-0.7-3.9L271.4,82z"/>
		<path id="XMLID_213_" class="st19" d="M266.7,76.8c-0.7-3.9,2-7.7,6-8.3c4-0.7,7.7,2,8.4,5.9c0.2,1.1,0.3,4.5,0.4,5.1
			c0.5,2.8,0.1,5-2.7,5.5c-1.3,0.2-5.4-0.9-8.2-2.7C268.1,80.5,266.9,78.1,266.7,76.8z"/>
		<path id="XMLID_212_" class="st16" d="M271,90.4c-2.5,1.7-6.4,0.9-8.1-1.7c-0.4-0.6-0.7-1.3-1.1-1.9c-1.5-2.2-7-3-9.6-3.4
			c-1.2-0.2,0,0-1.2-0.2"/>
		<path id="XMLID_211_" class="st20" d="M252.3,83.4c-1.2-0.2,0,0-1.2-0.2"/>
		<path id="XMLID_210_" class="st12" d="M279,79.1c-0.9,0.5-1.9,1.2-2,2.2c-0.1,0.9,0.6,1.9,1.5,2.1c0.9,0.2,1.9-0.3,2.4-1
			c0.5-0.8,0.6-1.8,0.3-2.7C281.2,79.3,280.3,78.3,279,79.1z"/>
		<path id="XMLID_209_" class="st21" d="M279.2,70.4c0.1-1.7-1.3-3.2-2.6-4.3c-3.2-2.6-6.8-4.4-10.8-5.5c0.3,0.9,0.7,1.7,1.3,2.4
			c-3.4-0.3-6.8-0.8-10.1-1.6c0.6,0.3,1,0.9,1.2,1.6c0.2,0.7,0.2,1.3,0.4,2c0.3,1.1,1,2.1,2,2.7c-2.4-0.6-4.8-1.3-7.1-2.1
			c1.6,1,1.5,3.4,2.4,5.1c1.1,2.2,3.9,3.2,5.4,5.2c-0.6,0.3-1.4,0.5-2.1,0.4c1.7,2,3.9,3.6,6.4,4.4c-0.5,0.2-0.9,0.5-1.4,0.7
			c2.6,0.1,5.1,0.5,7.7,1.2c-0.6-0.5-0.5-1.6-1.3-1.9c-0.2-0.1-0.5-0.1-0.8-0.2c-0.7-0.1-1.3-0.7-1.4-1.4c-0.1-0.7,0.4-1.5,1.1-1.7
			c0.7-0.2,1.5,0.3,1.6,1c0.7-0.1,1.4-0.2,2.1-0.4c-0.6-1-1.1-2.2-1.3-3.3c0.4,0.3,1.1,0.2,1.4-0.2c0.3-0.4,0.1-1.1-0.3-1.4
			c0.9,0.5,2,0.4,3,0.1c1-0.3,1.8-0.9,2.6-1.5c0.2-0.1,0.3-0.2,0.4-0.4c0.2-0.4,0-1.1,0.3-1.5"/>
		<polygon id="XMLID_208_" class="st17" points="281.2,101.2 277.9,104.1 273.1,102.3 273.1,100.3 278.7,97.9 		"/>
	</g>
	<g id="XMLID_147_">
		<defs>
			<path id="XMLID_148_" d="M273.8,284.4l-4.5-24.2c0,0,2.8-5.7,3.4-9.4c0.6-3.7,22.2-0.1,22.2-0.1l2.9,3.9l-0.2,12.6l-5.3,8.1
				l-3.1,5.5l-6.4,2.7L273.8,284.4z"/>
		</defs>
		<clipPath id="XMLID_123_">
			<use xlink:href="#XMLID_148_"  style="overflow:visible;"/>
		</clipPath>
		<g id="XMLID_149_" class="st22">
			<g id="XMLID_150_">
				<g id="XMLID_201_">
					<path id="XMLID_206_" class="st23" d="M256.7,258.8c0.9-0.5,2-0.8,3-0.9c1.2-0.1,3.3,0.1,5.4,0.8c2.6,0.8,3.8,1.8,4.8,3.1"/>
					<g id="XMLID_202_">
						<path class="st15" d="M256.7,258.8c0.9-0.5,2-0.8,3-0.9"/>
						<path class="st24" d="M256.1,257.5c0,0,0.2-0.1,0.5-0.2c0.3-0.1,0.8-0.3,1.2-0.4c0.9-0.2,1.8-0.3,1.8-0.3l0,0
							c0.7,0,1.4,0.5,1.4,1.3c0,0.7-0.5,1.3-1.1,1.4c0,0-0.7,0.1-1.3,0.3c-0.3,0.1-0.6,0.2-0.8,0.4c-0.2,0.1-0.4,0.2-0.4,0.2l0,0
							c-0.7,0.4-1.6,0.1-2-0.6c-0.4-0.7-0.1-1.6,0.6-2C256,257.6,256,257.6,256.1,257.5z"/>
					</g>
				</g>
				<g id="XMLID_198_">
					<path class="st24" d="M253,258.8c0,0,0.2-0.2,0.4-0.3c0.1-0.1,0.3-0.2,0.5-0.3c0.2-0.1,0.3-0.2,0.5-0.3
						c0.4-0.1,0.8-0.3,1.1-0.3c0.3,0,0.7,0.1,1,0.3c0.3,0.2,0.6,0.4,0.9,0.7c0.3,0.3,0.6,0.6,0.9,0.9c0.3,0.3,0.7,0.6,1.1,0.9
						c0.4,0.3,0.7,0.7,1,1c0.4,0.3,0.7,0.6,1.1,0.9c0.4,0.3,0.8,0.6,1.1,0.8c0.7,0.5,1.4,1,1.9,1.5c0.5,0.5,0.9,1,1.2,1.4
						c0.2,0.1,0,0.6-0.1,1c-0.1,0.2-0.2,0.5-0.3,0.6c-0.1,0.2-0.1,0.3-0.1,0.3c0,0.1-0.1,0.2-0.2,0.2c0,0-0.1,0.1-0.2,0.2
						c-0.1,0.1-0.3,0.3-0.5,0.5c-0.4,0.3-0.8,0.6-0.9,0.5c-0.4-0.1-1-0.3-1.7-0.6c-0.7-0.3-1.4-0.8-2.1-1.3
						c-0.4-0.3-0.7-0.5-1.1-0.8c-0.4-0.3-0.8-0.5-1.2-0.7c-0.4-0.2-0.9-0.4-1.3-0.6c-0.4-0.2-0.8-0.5-1.2-0.7
						c-0.4-0.2-0.8-0.4-1.2-0.5c-0.4-0.2-0.7-0.4-1-0.6c-0.3-0.3-0.5-0.5-0.6-0.9c-0.1-0.3-0.1-0.7-0.1-1.1c0-0.2,0-0.4,0.1-0.6
						c0-0.2,0.1-0.4,0.1-0.5c0.1-0.3,0.1-0.5,0.1-0.5c-0.3-0.2-0.4-0.7-0.2-1C252.2,258.7,252.6,258.6,253,258.8z"/>
				</g>
				<g id="XMLID_193_">
					<path id="XMLID_197_" class="st23" d="M253,262.9c-0.3,1-0.3,2.1-0.2,3.1c0.2,1.2,0.9,3.8,2.9,4.8c2.6,1.2,6.2-7.1,6.4-7.8"/>
					<g id="XMLID_194_">
						<path class="st24" d="M254.4,263.3c0,0,0,0.2-0.1,0.4c-0.1,0.2-0.1,0.6-0.2,0.9c-0.1,0.7,0,1.3,0,1.3c0.1,0.7-0.5,1.4-1.2,1.5
							c-0.7,0.1-1.3-0.4-1.4-1.1l0,0c0,0-0.2-0.9-0.1-1.8c0-0.5,0.1-0.9,0.1-1.3c0.1-0.3,0.1-0.6,0.1-0.6c0.2-0.8,0.9-1.3,1.7-1.2
							c0.8,0.2,1.3,0.9,1.2,1.7C254.5,263.1,254.5,263.2,254.4,263.3L254.4,263.3z"/>
					</g>
				</g>
				<path id="XMLID_192_" class="st19" d="M249.7,259.3l2.2,1.5c0.2,0.3,1.3-0.3,1.6-0.7c0.5-0.7,0.1-1.7,0.1-1.7l-2-1.4
					L249.7,259.3z"/>
				<path id="XMLID_191_" class="st15" d="M245.4,259.1c-2-1.4-2.5-4.2-1.1-6.2c1.4-2,4.2-2.5,6.2-1.1c0.6,0.4,2.1,1.8,2.4,2
					c1.4,1,2.2,2.1,1.2,3.6c-0.5,0.6-2.7,2-4.7,2.4C247.6,260.1,246,259.6,245.4,259.1z"/>
				<path id="XMLID_190_" class="st24" d="M246.8,257c1.4,0.3,1.9,2.2,3.3,2.4c0.4,0.1,0.8,0,1.2-0.1c0.8-0.2,1.5-0.5,2.2-0.9
					c0.6-0.3,1.2-0.7,1.5-1.4s0-1.5-0.7-1.7c-0.4,0.1-0.5,0.6-0.6,1c0,0.4-0.1,0.9-0.4,1.1c-0.5,0.3-1.1-0.2-1.6,0
					c-0.3,0.2-0.4,0.6-0.7,0.7c-0.3,0.1-0.6,0-0.9-0.2c-1.3-0.7-2.7-1.5-4-2.2c-0.2,0.5,0.3,1.2,0.8,1.2"/>
				<polygon id="XMLID_189_" class="st24" points="252.7,245.6 240,263.4 243.1,257.4 247.9,250.8 				"/>
				<g id="XMLID_161_">
					<g id="XMLID_186_">
						<path id="XMLID_188_" class="st25" d="M288.8,253.6l3.1,0.2l2.3-0.1l-0.3,7.9c0,0-1.7,0-2.1-2c-0.4-2.1-0.5-1.9-0.5-1.9
							l-2.8-0.1L288.8,253.6z"/>
						
							<ellipse id="XMLID_187_" transform="matrix(0.5718 -0.8204 0.8204 0.5718 -85.0436 349.3788)" class="st26" cx="292.1" cy="256.2" rx="0.8" ry="0.8"/>
					</g>
					<g id="XMLID_183_">
						<path id="XMLID_185_" class="st25" d="M288.2,260.3l3.1,0.2l2.3-0.1l-0.3,7.9c0,0-1.7,0-2.1-2c-0.4-2.1-0.5-1.9-0.5-1.9
							l-2.8-0.1L288.2,260.3z"/>
						
							<ellipse id="XMLID_184_" transform="matrix(0.5717 -0.8205 0.8205 0.5717 -90.781 351.794)" class="st26" cx="291.6" cy="262.9" rx="0.8" ry="0.8"/>
					</g>
					<g id="XMLID_177_">
						<path id="XMLID_182_" class="st23" d="M259.3,259.9c0.6,0.9,1.4,1.6,2.3,2.1c1,0.6,3,1.3,5.2,1.6c2.7,0.4,4.2,0,5.7-0.7"/>
						<g id="XMLID_178_">
							<path class="st15" d="M259.3,259.9c0.6,0.9,1.4,1.6,2.3,2.1"/>
							<path class="st24" d="M260.5,259c0,0,0.1,0.1,0.2,0.3c0.1,0.2,0.4,0.4,0.6,0.7c0.5,0.5,1,0.9,1,0.9c0.6,0.4,0.8,1.2,0.4,1.9
								c-0.4,0.6-1.2,0.8-1.8,0.4l0,0c0,0-0.8-0.4-1.5-1.1c-0.4-0.3-0.7-0.6-0.9-0.9c-0.2-0.3-0.4-0.4-0.4-0.4
								c-0.5-0.6-0.4-1.5,0.2-2.1c0.6-0.5,1.5-0.4,2.1,0.2C260.4,258.9,260.4,258.9,260.5,259L260.5,259z"/>
						</g>
					</g>
					<g id="XMLID_174_">
						<path class="st24" d="M255.7,256.9c0,0,0-0.2,0.1-0.5c0-0.1,0.1-0.3,0.1-0.5c0.1-0.2,0.1-0.4,0.2-0.6c0.2-0.4,0.3-0.7,0.6-1
							c0.3-0.2,0.6-0.4,0.9-0.5c0.3-0.1,0.7-0.2,1.1-0.1c0.4,0,0.9,0,1.3,0c0.4,0,0.9-0.1,1.4-0.1c0.5,0,1,0,1.4,0
							c0.5,0,1-0.1,1.4-0.1c0.5-0.1,0.9-0.1,1.4-0.2c0.9-0.2,1.7-0.3,2.4-0.3c0.7,0,1.3,0.1,1.8,0.2c0.2,0,0.4,0.4,0.6,0.8
							c0.1,0.2,0.2,0.5,0.2,0.6c0.1,0.2,0.1,0.3,0.1,0.3c0,0.1,0,0.2,0,0.3c0,0,0,0.1,0,0.3c0,0.1,0,0.4,0,0.7c0,0.5-0.1,1-0.3,1
							c-0.4,0.2-0.9,0.5-1.6,0.7c-0.7,0.2-1.5,0.4-2.4,0.5c-0.4,0.1-0.9,0.1-1.4,0.2c-0.5,0.1-0.9,0.2-1.4,0.3
							c-0.5,0.1-0.9,0.3-1.4,0.5c-0.5,0.1-0.9,0.2-1.3,0.3c-0.4,0.1-0.8,0.3-1.2,0.5c-0.4,0.2-0.8,0.2-1.1,0.2c-0.4,0-0.7-0.1-1-0.2
							c-0.3-0.1-0.6-0.4-0.9-0.7c-0.1-0.2-0.3-0.3-0.4-0.5c-0.1-0.2-0.2-0.3-0.3-0.5c-0.2-0.2-0.3-0.5-0.2-0.4
							c-0.4,0.1-0.7-0.2-0.8-0.6C255,257.3,255.3,256.9,255.7,256.9z"/>
					</g>
					<g id="XMLID_169_">
						<path id="XMLID_173_" class="st23" d="M257.7,254.6c0.2-1,0.6-2,1.2-2.9c0.6-1,2.5-3.1,4.7-3c2.8,0,2.5,9.1,2.4,9.8"/>
						<g id="XMLID_170_">
							<path class="st24" d="M256.3,254.3c0,0,0.1-0.2,0.1-0.5c0.1-0.3,0.3-0.8,0.5-1.2c0.4-0.8,0.9-1.6,0.9-1.6l0,0
								c0.4-0.6,1.3-0.7,1.9-0.3c0.6,0.4,0.7,1.2,0.4,1.8c0,0-0.3,0.6-0.6,1.2c-0.1,0.3-0.2,0.6-0.2,0.9c0,0.2-0.1,0.4-0.1,0.4l0,0
								c-0.1,0.8-0.9,1.3-1.7,1.2c-0.8-0.1-1.3-0.9-1.2-1.7C256.3,254.4,256.3,254.4,256.3,254.3z"/>
						</g>
					</g>
					<g id="XMLID_166_">
						<path class="st27" d="M287.9,264.2l-10.3-2.2l-0.7-0.3c-0.6-0.3-1.1-0.6-1.7-1c-0.6-0.3-1.1-0.7-1.7-1
							c-1.1-0.7-2.2-1.4-3.3-2.2l-0.4-0.3l-0.2-0.2l-0.1-0.1l-0.1-0.1l-0.1-0.1l-0.2-0.2c0,0-0.1-0.2-0.2-0.3c0-0.1-0.1-0.1-0.1-0.2
							c0,0-0.1-0.1-0.2-0.5c-0.1-0.3-0.1-0.7,0-1c0.1-0.4,0.2-0.7,0.4-0.9c1.1-1,0.3-0.3,0.5-0.5l0,0l0,0l0,0c0.1,0,0.1-0.1,0.2-0.1
							c0.2-0.1,0.3-0.1,0.5-0.2c0.1,0,0.2,0,0.2-0.1l0.2,0l0.1,0l0.2,0c0.2,0,0.3,0,0.4,0l0.6,0c0.7,0.1,1.4,0.2,2,0.3l1.9,0.4
							c0.6,0.1,1.3,0.2,1.9,0.3l-0.2,0c1.8,0,3.6,0.1,5.4,0.1c1.8,0,3.6,0,5.4-0.1l2.2-0.1l-0.1,4.7l-2.2-0.2
							c-1.8-0.1-3.6-0.2-5.4-0.3c-1.8-0.1-3.6-0.1-5.4-0.1l-0.2,0c-0.6-0.1-1.3-0.1-1.9-0.1l-1.9,0c-0.6,0-1.3,0-1.8,0l-0.4,0
							l-0.1,0l0,0l0,0l0.1,0c0.1,0,0.1,0,0.2-0.1c0.1,0,0.3-0.1,0.4-0.2c0.1,0,0.1-0.1,0.2-0.1c0,0,0,0,0,0l0,0l0,0
							c0.2-0.2-0.5,0.5,0.5-0.5c0.2-0.2,0.3-0.5,0.4-0.9c0.1-0.3,0.1-0.7,0-1c-0.1-0.4-0.2-0.5-0.2-0.5c0-0.1-0.1-0.1-0.1-0.2
							c-0.1-0.1-0.2-0.3-0.2-0.3l-0.1-0.1l0,0l0,0l0,0l0.1,0.1l0.3,0.3c1,0.8,2,1.6,2.9,2.4c0.5,0.4,1,0.8,1.5,1.2
							c0.5,0.4,1,0.9,1.4,1.3l-0.7-0.3l10.4,1.5l2.1,0.3l-0.8,4.2L287.9,264.2z"/>
					</g>
					<path id="XMLID_165_" class="st19" d="M253.2,256.4l2.6-0.4c0.3-0.2,1,0.8,1.1,1.3c0.1,0.8-0.6,1.6-0.6,1.6l-2.4,0.4
						L253.2,256.4z"/>
					<path id="XMLID_164_" class="st15" d="M249.2,254.7c-2.4,0.4-4.1,2.7-3.7,5.1c0.4,2.4,2.7,4.1,5.1,3.7c0.7-0.1,2.7-0.7,3.1-0.8
						c1.7-0.3,2.9-0.9,2.6-2.7c-0.1-0.8-1.6-3-3.2-4.2C251.6,254.8,250,254.6,249.2,254.7z"/>
					<path id="XMLID_163_" class="st24" d="M249.5,257.2c1.3,0.3,2.7-1.2,4-0.8c0.4,0.1,0.7,0.4,1,0.6c0.6,0.5,1.1,1.1,1.6,1.7
						c0.4,0.6,0.8,1.2,0.7,1.9c0,0.7-0.7,1.4-1.4,1.2c-0.3-0.2-0.2-0.7-0.1-1.1c0.2-0.4,0.3-0.8,0.1-1.1c-0.3-0.4-1.1-0.3-1.4-0.7
						c-0.2-0.3-0.1-0.7-0.4-0.9c-0.2-0.2-0.5-0.2-0.8-0.2c-1.5,0.1-3,0.2-4.6,0.3c0.1-0.6,0.8-0.9,1.3-0.7"/>
					<polygon id="XMLID_162_" class="st24" points="249.8,270 246.3,248.5 246.4,255.3 247.8,263.3 					"/>
				</g>
				<polygon id="XMLID_160_" class="st24" points="246.8,253.1 244.8,251.8 249.8,245.1 252,246.4 				"/>
				<g id="XMLID_157_">
					<path id="XMLID_159_" class="st12" d="M280.5,277.3l2.9,1.2l2,1.1l3.2-7.3c0,0-1.5-0.8-2.8,0.9c-1.3,1.7-1.3,1.5-1.3,1.5
						l-2.5-1.1L280.5,277.3z"/>
					
						<ellipse id="XMLID_158_" transform="matrix(0.988 -0.1542 0.1542 0.988 -39.2186 47.1825)" class="st28" cx="284.6" cy="276.5" rx="0.8" ry="0.8"/>
				</g>
				<g id="XMLID_154_">
					<path id="XMLID_156_" class="st12" d="M282.9,271l2.9,1.2l2,1.1l3.2-7.3c0,0-1.5-0.8-2.8,0.9c-1.3,1.7-1.3,1.5-1.3,1.5
						l-2.5-1.1L282.9,271z"/>
					
						<ellipse id="XMLID_155_" transform="matrix(0.988 -0.1542 0.1542 0.988 -38.2223 47.4811)" class="st28" cx="287.1" cy="270.2" rx="0.8" ry="0.8"/>
				</g>
				<g id="XMLID_151_">
					<path class="st29" d="M283.2,271.4l-10-3.1l0.8,0c-0.6,0.2-1.2,0.4-1.9,0.5c-0.6,0.2-1.2,0.3-1.9,0.5c-1.2,0.3-2.5,0.6-3.7,0.9
						l-0.4,0.1l-0.2,0l-0.1,0c0,0,0,0,0.2-0.1l0.1-0.1c0.1-0.1,0.3-0.1,0.4-0.2c0.1-0.1-0.1,0.1,0.2-0.2c0.2-0.2,0.4-0.5,0.5-0.8
						c0.1-0.3,0.2-0.7,0.1-1c0-0.3-0.5-1.5-0.3-0.9l0,0l0,0c0,0,0,0,0,0l-0.1-0.1c-0.1-0.1-0.2-0.3-0.3-0.4
						c-0.1-0.1-0.2-0.2-0.3-0.3l0,0l0,0l0.1,0l0.3,0.2c0.5,0.2,1.1,0.5,1.7,0.8l1.7,0.8c0.6,0.3,1.2,0.5,1.8,0.7l0.2,0.1
						c1.6,0.7,3.3,1.5,4.9,2.2c1.6,0.7,3.3,1.4,5,2.1l2.1,0.8l-2,4.2l-1.9-1c-1.6-0.8-3.2-1.6-4.8-2.4c-1.6-0.8-3.3-1.5-4.9-2.3
						l0.2,0.1c-0.6-0.2-1.2-0.4-1.9-0.6l-1.9-0.5c-0.6-0.2-1.3-0.4-1.9-0.6l-0.5-0.2c-0.1,0-0.2-0.1-0.4-0.2l-0.1-0.1l-0.1-0.1
						c-0.1-0.1-0.3-0.2-0.4-0.3c-0.1-0.1-0.2-0.3-0.3-0.4l-0.1-0.1l0,0c0.2,0.6-0.3-0.7-0.3-0.9c0-0.3,0-0.7,0.1-1
						c0.1-0.3,0.3-0.6,0.5-0.8c0.3-0.3,0.1-0.1,0.2-0.2c0.1-0.1,0.3-0.2,0.4-0.2l0.1-0.1c0.3-0.1,0.3-0.1,0.4-0.1l0.2,0l0.3-0.1
						l0.5-0.1c1.3-0.2,2.6-0.4,3.9-0.6c0.6-0.1,1.3-0.1,1.9-0.2c0.6,0,1.3-0.1,1.9-0.1l0.8,0l10.2,2.5l2,0.5l-1.2,4.1L283.2,271.4z"
						/>
				</g>
			</g>
		</g>
	</g>
	<g id="XMLID_137_">
		<g id="XMLID_144_">
			<polygon class="st12" points="161.8,28.8 148.7,29.1 150.7,27.9 142.1,46.4 138.2,41.2 151.3,39.2 153.4,39.7 165.4,51 
				166.3,51.9 164.9,53.7 163.8,53 150.3,43.6 152.4,44.1 139.8,48.1 135.9,43 146.8,25.8 148.8,24.6 161.8,25.3 163.5,25.4 
				163.5,28.7 			"/>
		</g>
		<g id="XMLID_141_">
			<path id="XMLID_143_" class="st21" d="M163.4,54.3l3.7,1.6l2.5,1.5l4.2-9.3c0,0-1.9-1.1-3.6,1.1c-1.7,2.2-1.7,1.9-1.7,1.9
				l-3.2-1.5L163.4,54.3z"/>
			
				<ellipse id="XMLID_142_" transform="matrix(0.9916 -0.1293 0.1293 0.9916 -5.4875 22.2683)" class="st29" cx="168.8" cy="53.4" rx="1" ry="1"/>
		</g>
		<g id="XMLID_138_">
			<path id="XMLID_140_" class="st21" d="M163.3,29.3l4-0.4l2.9,0.1l-0.8-10.2c0,0-2.2,0-2.6,2.7s-0.5,2.5-0.5,2.5l-3.5,0.3
				L163.3,29.3z"/>
			<path id="XMLID_139_" class="st29" d="M168.1,26.7c0.4-0.3,0.5-1,0.2-1.4c-0.3-0.5-1-0.6-1.4-0.2c-0.4,0.3-0.5,1-0.2,1.4
				C167,26.9,167.6,27,168.1,26.7z"/>
		</g>
	</g>
	<g id="XMLID_116_">
		<g id="XMLID_131_">
			<path id="XMLID_136_" class="st30" d="M81.5,39.3c0.9,1.3,2.1,2.5,3.5,3.4c1.5,1,5.4,2.8,8.6,1.3c4-1.8-0.2-9.8-1-11.8
				c-0.4-0.9-0.8-1.8-1.3-2.8"/>
			<path id="XMLID_135_" class="st30" d="M92.5,32.2c-0.4-0.9-0.8-1.8-1.3-2.8"/>
			<g id="XMLID_132_">
				<path class="st31" d="M83.1,38.1c0,0,0,0.1,0.1,0.2c0.1,0.1,0.2,0.2,0.3,0.4c0.2,0.3,0.5,0.7,0.9,1.1c0.7,0.8,1.6,1.4,1.6,1.4
					c0.9,0.6,1.1,1.8,0.5,2.6c-0.6,0.8-1.6,1-2.5,0.5l0,0c0,0-1.2-0.7-2.3-1.7c-0.5-0.5-1-1-1.4-1.4c-0.2-0.2-0.3-0.4-0.4-0.5
					c-0.1-0.1-0.1-0.2-0.1-0.2c-0.7-0.9-0.5-2.2,0.4-2.9C81,37,82.3,37.1,83,38C83.1,38.1,83.1,38.1,83.1,38.1z"/>
			</g>
		</g>
		<g id="XMLID_128_">
			<path class="st32" d="M76.4,35.7c0,0,0.1,0,0.2,0c0.2,0,0.4,0.1,0.6,0.1c0.2,0.1,0.5,0.1,0.8,0.2c0.3,0.1,0.6,0.2,0.9,0.3
				c0.5,0.2,1.1,0.5,1.5,0.9c0.3,0.4,0.6,0.9,0.8,1.4c0.2,0.5,0.3,1.1,0.2,1.8c0,0.6-0.1,1.3,0,2c0,0.7,0.1,1.4,0.2,2.1
				c0.1,0.7,0,1.5,0,2.2c0.1,1.5,0.3,2.9,0.5,4.3c0.2,1.4,0.4,2.6,0.4,3.7c0,1.1-0.1,2.1-0.2,2.7c0,0.2-0.1,0.3-0.4,0.5
				c-0.3,0.2-0.6,0.3-1,0.5c-1,0.3-1.5,0.5-1.5,0.5c-0.1,0-0.3,0.1-0.4,0.1c0,0-0.5,0-1.6,0c-0.4,0-0.8-0.1-1.1-0.1
				c-0.3-0.1-0.4-0.2-0.5-0.4c-0.3-0.6-0.7-1.5-1.1-2.5c-0.4-1.1-0.6-2.3-0.8-3.7c-0.2-1.4-0.5-2.8-0.9-4.2
				c-0.2-0.7-0.5-1.4-0.7-2.1c-0.2-0.7-0.4-1.4-0.5-2.1c-0.2-0.7-0.5-1.3-0.7-1.9c-0.2-0.6-0.4-1.2-0.4-1.7c0-0.6,0.1-1.1,0.3-1.6
				c0.2-0.5,0.7-1,1.1-1.4c0.2-0.2,0.5-0.4,0.7-0.6c0.3-0.2,0.5-0.3,0.7-0.4c0.2-0.1,0.4-0.2,0.5-0.3c0.1-0.1,0.2-0.1,0.2-0.1
				C75,35.8,75.7,35.6,76.4,35.7z"/>
		</g>
		<path id="XMLID_127_" class="st18" d="M72.4,32.7l0.7,4c-0.1,0.5,1.7,1.1,2.5,1c1.3-0.2,2-1.7,2-1.7l-0.6-3.7L72.4,32.7z"/>
		<path id="XMLID_126_" class="st19" d="M67.9,27.7c-0.6-3.7,1.9-7.3,5.7-7.9c3.7-0.6,7.3,1.9,7.9,5.6c0.2,1.1,0.3,4.2,0.4,4.9
			c0.5,2.7,0.1,4.7-2.6,5.2c-1.2,0.2-5.2-0.8-7.8-2.6C69.2,31.3,68.1,29,67.9,27.7z"/>
		<g id="XMLID_120_">
			<path id="XMLID_125_" class="st33" d="M71.3,40.3c-1.2,1.1-2.1,2.5-2.7,4c-0.7,1.7-1.8,5.8,0.1,8.6c2.5,3.6,9.6-1.8,11.5-3
				c0.8-0.5,1.6-1,2.4-1.7"/>
			<path id="XMLID_124_" class="st33" d="M80.2,50c0.8-0.5,1.6-1,2.4-1.7"/>
			<g id="XMLID_121_">
				<path class="st34" d="M72.9,41.9c0,0-0.2,0.2-0.5,0.5c-0.3,0.3-0.6,0.6-0.9,1.1c-0.6,0.8-1.1,1.7-1.1,1.7c-0.5,1-1.7,1.5-2.7,1
					c-1-0.5-1.4-1.6-1-2.6l0,0c0,0,0.5-1.3,1.3-2.5c0.4-0.6,0.8-1.2,1.2-1.6c0.2-0.2,0.4-0.4,0.4-0.5c0.1-0.1,0.1-0.2,0.1-0.2
					c0.8-0.9,2.3-1,3.2-0.2s1,2.3,0.2,3.2C73,41.8,73,41.9,72.9,41.9L72.9,41.9z"/>
			</g>
		</g>
		<path id="XMLID_119_" class="st29" d="M75.7,25.8c-2,1.8-3.9,3.6-5.8,5.6c-1.7-1.8-4.3-2.5-6.8-2.6c-1.6-0.1-3.3,0.1-4.8,0.7
			c-1.5,0.6-2.8,1.8-3.4,3.3c-0.6-4,2.1-8.3,6-9.5c1.5-0.5,3.1-0.5,4.6-0.4C69.1,23,72.9,23.6,75.7,25.8"/>
		<path id="XMLID_118_" class="st21" d="M79.4,23.8c-3.7-5.2-8.5-9.6-14.1-12.6c0.3,1.7,0.6,3.4,0.9,5.1c0.5,2.6,1,5.2,2.4,7.4
			c1.2,1.8,3,3.2,4.9,4.2c0.3-0.3,1.4-1.5,2.7-2.3C77.5,24.7,78.8,24.2,79.4,23.8z"/>
		<path id="XMLID_117_" class="st27" d="M77.5,24.8c0.6-0.3,1-0.5,1.5-0.8c0.6-0.2,1.8-0.4,2.1,0.2c-0.2-0.8-0.7-1.6-1.1-2.4
			c-1.2-2.8-0.1-6.3,2.3-8c0.9-0.6,2.1-1,3.1-0.6c-0.5-1.1-1.6-1.7-2.8-1.9c-1.2-0.2-2.4,0.1-3.5,0.4c-0.9,0.3-1.7,0.6-2.5,1
			c-2.1,1.4-3.1,4.3-2.2,6.7C75.3,21.5,77.5,24.8,77.5,24.8z"/>
	</g>
	<polygon id="XMLID_115_" class="st32" points="75,59.5 80.2,61.5 84.6,57.8 83.1,53.1 77,56.6 74.1,56.3 	"/>
	<g id="XMLID_88_">
		<g id="XMLID_112_">
			<path id="XMLID_114_" class="st12" d="M94.6,147.2l4.4,2l3,1.8l5.2-11.1c0,0-2.3-1.3-4.4,1.3c-2,2.6-2.1,2.3-2.1,2.3l-3.9-1.8
				L94.6,147.2z"/>
			
				<ellipse id="XMLID_113_" transform="matrix(0.9922 -0.1249 0.1249 0.9922 -17.4561 13.7695)" class="st28" cx="101.1" cy="146.1" rx="1.2" ry="1.2"/>
		</g>
		<g id="XMLID_106_">
			<path id="XMLID_111_" class="st35" d="M73.2,111.8c1.6-0.4,3.2-0.5,4.9-0.2c1.8,0.3,5.9,1.5,7.3,4.6c1.8,4-6.6,7.2-8.6,8.2
				c-0.9,0.4-4.7,2-5.7,2.3"/>
			<g id="XMLID_107_">
				<path class="st15" d="M73.2,111.8c1.6-0.4,3.2-0.5,4.9-0.2"/>
				<path class="st27" d="M72.7,109.6c0,0,0.1,0,0.2,0c0.1,0,0.4-0.1,0.7-0.1c0.5-0.1,1.3-0.1,2-0.2c1.4,0,2.8,0.2,2.8,0.2l0,0
					c1.1,0.2,1.9,1.3,1.6,2.4c-0.2,1.1-1.2,1.8-2.2,1.7c0,0-1-0.1-2.1,0c-0.5,0-1,0.1-1.4,0.2c-0.4,0.1-0.6,0.2-0.6,0.2l0,0
					c-1.2,0.3-2.4-0.4-2.8-1.6s0.4-2.4,1.6-2.8C72.6,109.7,72.7,109.7,72.7,109.6z"/>
			</g>
		</g>
		<g id="XMLID_103_">
			<path class="st27" d="M69.3,108.9c0,0,0.1,0,0.2,0c0.1,0,0.4,0.1,0.6,0.1c0.2,0.1,0.5,0.1,0.8,0.2c0.3,0.1,0.6,0.2,0.9,0.3
				c0.5,0.3,1.1,0.6,1.4,1c0.3,0.4,0.6,0.9,0.7,1.4c0.2,0.5,0.2,1.1,0.2,1.8c0,0.6-0.1,1.3-0.1,2c0,0.7,0.1,1.4,0.1,2.1
				c0,0.7-0.1,1.5-0.1,2.2c0,1.5,0.2,2.9,0.4,4.3c0.2,1.4,0.3,2.6,0.3,3.8c0,1.1-0.2,2.1-0.3,2.7c0,0.2-0.1,0.3-0.4,0.5
				c-0.3,0.2-0.6,0.3-1,0.4c-1,0.3-1.5,0.5-1.5,0.5c-0.1,0-0.3,0.1-0.4,0.1c0,0-0.5,0-1.5-0.1c-0.4,0-0.8-0.1-1.1-0.2
				c-0.3-0.1-0.4-0.2-0.5-0.4c-0.3-0.6-0.7-1.5-1-2.6c-0.3-1.1-0.5-2.3-0.7-3.7c-0.2-1.4-0.4-2.8-0.7-4.3c-0.2-0.7-0.5-1.4-0.6-2.1
				c-0.2-0.7-0.3-1.4-0.5-2.1c-0.2-0.7-0.4-1.3-0.6-1.9c-0.2-0.6-0.3-1.2-0.3-1.8c0-0.6,0.2-1.1,0.4-1.6c0.2-0.5,0.7-0.9,1.2-1.3
				c0.3-0.2,0.5-0.4,0.7-0.5c0.3-0.2,0.5-0.3,0.7-0.4c0.2-0.1,0.4-0.2,0.5-0.3c0.1-0.1,0.2-0.1,0.2-0.1
				C67.8,108.9,68.6,108.8,69.3,108.9z"/>
		</g>
		<g id="XMLID_100_">
			<path class="st29" d="M85.6,137.5l-2.7-13.4l4.1,1.7l0,0c-0.9,0.7-1.8,1.4-2.7,2c-0.9,0.7-1.8,1.3-2.8,2
				c-1.9,1.3-3.7,2.6-5.6,3.8l-1.4,0.9l-0.6,0.4l-0.2,0.2c0,0,0,0,0,0l0.1-0.1c0,0,0,0,0.2-0.2l0.1-0.1l0.1-0.1c0,0,0,0,0.3-0.4
				c0.4-0.6,0.6-1.3,0.5-2c0.2,0.2-0.3-1.5-0.3-1.2l0,0l0,0c0,0,0-0.1-0.1-0.1l-0.1-0.2c-0.2-0.3-0.4-0.6-0.6-0.8
				c-0.1-0.1-0.2-0.2-0.3-0.2l-0.1-0.1c-0.2-0.1-0.1-0.1,0,0l0.3,0.1l0.7,0.3c0.5,0.2,1,0.5,1.5,0.7l3,1.5c1,0.5,2.1,0.9,3.1,1.4
				l0.3,0.1c2.5,1.2,5,2.5,7.5,3.7c2.5,1.2,5,2.4,7.6,3.5l3.1,1.3l-3.2,6.4l-3-1.7c-2.4-1.4-4.9-2.7-7.3-4c-2.5-1.3-4.9-2.5-7.4-3.8
				l0.3,0.1c-1.1-0.4-2.2-0.8-3.3-1.1c-1.1-0.3-2.2-0.7-3.3-1c-0.6-0.2-1.1-0.4-1.7-0.6c-0.3-0.1-0.6-0.2-0.9-0.4l-0.5-0.2
				c-0.2-0.1-0.4-0.2-0.8-0.4l-0.2-0.2c-0.1-0.1-0.2-0.2-0.3-0.3c-0.2-0.2-0.5-0.5-0.6-0.9l-0.1-0.2l-0.1-0.2l0,0l0,0
				c0.1,0.3-0.4-1.5-0.3-1.2c0-0.7,0.2-1.5,0.6-2c0.2-0.4,0.3-0.4,0.3-0.4l0.1-0.1l0.1-0.1c0.2-0.2,0.2-0.2,0.3-0.3l0.1-0.1l0.2-0.1
				l0.5-0.3l0.8-0.5l1.5-0.9c2-1.2,4-2.3,5.9-3.4c1-0.5,2-1.1,3-1.6c1-0.5,2-1,3.1-1.5l0,0l4.1,1.7l3.7,13.2l0.9,3.1l-6.5,1.6
				L85.6,137.5z"/>
		</g>
		<path id="XMLID_99_" class="st19" d="M65.3,105.7l0.5,4c-0.1,0.5,1.6,1.2,2.4,1.1c1.3-0.2,2.1-1.6,2.1-1.6l-0.5-3.8L65.3,105.7z"
			/>
		<path id="XMLID_98_" class="st15" d="M61.1,100.6c-0.5-3.8,2.2-7.2,6-7.7s7.2,2.2,7.7,5.9c0.1,1.1,0.1,4.2,0.2,4.9
			c0.3,2.7-0.1,4.7-2.8,5.1c-1.2,0.2-5.1-1-7.7-2.9C62.2,104.2,61.2,101.8,61.1,100.6z"/>
		<g id="XMLID_92_">
			<path id="XMLID_97_" class="st35" d="M63.6,114.5c-1.6,0.5-3,1.3-4.2,2.4c-1.4,1.2-3.6,3.1-5.9,5.6c-2.5,2.7,4.8,6,6.9,7.8"/>
			<g id="XMLID_93_">
				<path class="st15" d="M63.6,114.5c-1.6,0.5-3,1.3-4.2,2.4"/>
				<path class="st27" d="M64.3,116.6c0,0-0.2,0.1-0.6,0.2c-0.4,0.1-0.8,0.3-1.3,0.5c-0.9,0.4-1.7,1.1-1.7,1.1
					c-0.9,0.7-2.2,0.5-2.9-0.4c-0.7-0.8-0.6-2.1,0.2-2.8l0,0c0,0,1-1,2.3-1.7c0.6-0.4,1.3-0.7,1.8-0.9c0.2-0.1,0.5-0.2,0.6-0.3
					c0.1,0,0.2-0.1,0.2-0.1c1.2-0.5,2.5,0.1,2.9,1.3s-0.1,2.5-1.3,2.9C64.4,116.6,64.4,116.6,64.3,116.6L64.3,116.6z"/>
			</g>
		</g>
		<path id="XMLID_91_" class="st27" d="M67.9,110.7c-0.1,3.4-0.8,6.7-2.1,9.8c-0.5,1.2-1.1,2.5-0.9,3.9c-1.6-2.3-2.7-4.9-3.1-7.7
			c-0.2-1.3-0.3-2.6,0.1-3.8c0.4-1.2,1.2-2.4,2.4-2.8c1.3-0.5,2.8-0.1,3.7,0.9"/>
		<path id="XMLID_90_" class="st27" d="M69.8,109.7c0,3.5,2.3,6.5,3.6,9.8c0.5,1.3,1.2,2.6,1.6,3.9c0.7-2.6,1.2-6,1.1-8.6
			c-0.2-2.6-1.6-4.5-3.9-5.9c-0.3-0.2-0.6-0.3-0.9-0.3c-0.7,0-1.1,0.6-1.4,1.2"/>
		<path id="XMLID_89_" class="st21" d="M74,96.7c-1.9-4.4-3.4-9-4.6-13.7c-0.4,1.3-0.9,2.6-1.3,3.8c-1.5-1-2.9-2-4.4-3
			c0.2,1.6,0.5,3.1,0.7,4.7c-1.6-1.1-3.3-2.2-4.9-3.4c0.3,2,0.6,3.9,0.9,5.9c-1.5-0.6-2.9-1.4-4.2-2.3c0.5,1.3,1,2.5,1.5,3.8
			c-1.5-0.3-3.1-0.7-4.6-1c2.7,2.7,4.9,5.8,6.5,9.2c0.7,1.5,1.3,3.1,2.3,4.4c1,1.3,2.6,2.3,4.2,2.1c-0.4-1-0.6-2.1-0.5-3.1
			c-0.5,0.3-1.3,0.1-1.7-0.3c-0.4-0.4-0.7-1-0.9-1.6c-0.1-0.2-0.2-0.4-0.1-0.7c0.1-0.5,0.7-0.8,1.3-0.7c0.5,0.1,0.9,0.5,1.3,0.9
			c0.1-0.6-0.4-1.2-0.5-1.9c-0.2-1.3,1.4-2,2.7-2.3c0.8-0.2,1.5-0.3,2.3-0.2c0.8,0.1,1.5,0.7,1.7,1.4c0.1-1.3,1.5-2.3,2.7-2.1"/>
	</g>
	<g id="XMLID_69_">
		<polygon id="XMLID_87_" class="st24" points="178.6,181.6 178.9,183.6 175.6,185.4 174,183.4 178.3,181.3 		"/>
		<g id="XMLID_79_">
			<g id="XMLID_84_">
				<path class="st36" d="M174.1,229.6l-4.6-13.3l0.6-2.5l0,0c0.6-0.9,1.2-1.8,1.8-2.7c0.3-0.4,0.6-0.9,1-1.3c0.3-0.4,0.7-0.8,1-1.2
					c0.7-0.8,1.4-1.6,2.1-2.4c0.7-0.8,1.5-1.6,2.3-2.3c0.4-0.4,0.8-0.8,1.4-1.2c0.2-0.1,0.3-0.3,0.6-0.5c0.2-0.1,0.4-0.2,1-0.5
					c0.3-0.1,0.6-0.2,0.9-0.2c0.4,0,0.9,0,1.3,0.1c0.1,0,0.2,0.1,0.3,0.1c-0.8-0.4,1.4,0.7,1.2,0.6l0,0l0.1,0.1
					c0.2,0.2,0.4,0.4,0.6,0.6c0.2,0.2,0.4,0.5,0.5,0.7c0.1,0.1,0.1,0.3,0.2,0.4l0,0.1c0,0.1,0.1,0.3,0.1,0.4l0,0.2l0,0.1
					c0,0.1,0,0.3,0,0.4l0,0.2l0,0.3l0,0.4l-0.1,0.6c-0.1,0.7-0.2,1.2-0.3,1.8c-0.1,0.5-0.3,1.1-0.4,1.6c-0.1,0.5-0.3,1-0.5,1.5
					c-0.2,0.5-0.4,1-0.6,1.5c-0.4,1-0.8,2-1.4,2.9l0,0l-0.6-2.6l10.5,13.6l1.1,1.4l-2.5,2.2l-1.2-1.2l-12.2-12.2l-0.6-2.6l0,0
					c-0.1-1.1,0-2.1,0.1-3.2c0-0.5,0.1-1,0.2-1.5c0.1-0.5,0.1-1,0.2-1.5l0.4-2.8l0-0.2c0,0,0,0,0,0l0,0.1l0,0.1c0,0.1,0,0.2,0,0.3
					l0.1,0.3c0,0.1,0.1,0.2,0.1,0.3l0,0.1c0,0.1,0.1,0.3,0.2,0.4c0.1,0.3,0.3,0.5,0.5,0.7c0.2,0.2,0.4,0.4,0.6,0.6
					c0.2,0.1,0.1,0,0.1,0.1l0,0l0,0c-0.3-0.1,1.9,1,1.1,0.6c0.1,0,0.2,0.1,0.3,0.1c0.4,0.1,0.9,0.1,1.3,0.1c0.3,0,0.6-0.1,0.8-0.2
					c0.5-0.2,0.6-0.3,0.6-0.3c0.1-0.1,0,0,0,0c-0.2,0.2-0.6,0.5-1,0.8c-0.7,0.6-1.5,1.3-2.3,1.9c-0.8,0.7-1.6,1.3-2.4,2
					c-0.4,0.3-0.8,0.6-1.2,1c-0.4,0.3-0.8,0.6-1.3,1c-0.8,0.6-1.7,1.2-2.6,1.8l0,0l0.6-2.5l3.4,13.7l0.4,1.8l-3.4,1L174.1,229.6z"/>
			</g>
			<g id="XMLID_82_">
				<path id="XMLID_83_" class="st12" d="M193.6,226.6l2.4,1.5l-6.2,7.7c0,0-1.8-1.2-0.6-3.6c1.1-2.4,0.9-2.3,0.9-2.3
					s2.2-0.3,2.7-0.8C193.3,228.7,193.6,226.6,193.6,226.6z"/>
			</g>
			<g id="XMLID_80_">
				<path id="XMLID_81_" class="st12" d="M177.9,228.3l1.7,2.3l-8.7,5c0,0-1.2-1.8,0.8-3.7c2-1.9,1.7-1.9,1.7-1.9s2.2,0.5,2.9,0.2
					C176.9,230.1,177.9,228.3,177.9,228.3z"/>
			</g>
		</g>
		<g id="XMLID_77_">
			<path id="XMLID_78_" class="st37" d="M175.3,187.3c-0.4,1.4-1.1,2.8-2,4c-1,1.3-2.8,4.1-5.1,6.3c-2.7,2.6-5.9,4.1-8,4.5"/>
		</g>
		<g id="XMLID_74_">
			<path class="st19" d="M180.6,182.3c0,0,0.3,0,0.7,0.1c0.2,0,0.4,0.1,0.7,0.2c0.3,0.1,0.5,0.2,0.8,0.3c0.5,0.2,1,0.5,1.4,0.8
				c0.2,0.2,0.3,0.4,0.5,0.6c0.2,0.2,0.3,0.4,0.5,0.7c0.3,0.5,0.5,1,0.6,1.6c0.1,0.6,0.2,1.2,0.2,1.8c0.1,0.6,0.1,1.3,0,2
				c0,0.3-0.2,0.7-0.4,1.1c-0.1,0.4-0.2,0.7-0.3,1.1c-0.1,2.8,0.8,5.4,0.8,7.4c0,1-0.1,1.9-0.2,2.5c0,0.1-0.1,0.3-0.3,0.5
				c-0.2,0.2-0.5,0.3-0.9,0.4c-0.9,0.3-1.4,0.5-1.4,0.5c-0.1,0-0.3,0.1-0.4,0.1c0,0-0.5,0-1.4,0c-0.4,0-0.7-0.1-1-0.1
				c-0.3-0.1-0.4-0.2-0.5-0.3c-0.3-0.6-0.7-1.3-1-2.3c-0.7-2-0.7-4.7-1.7-7.3c-0.1-0.3-0.3-0.6-0.6-0.9c-0.3-0.3-0.5-0.6-0.7-0.9
				c-0.4-0.6-0.6-1.3-0.7-1.9c-0.1-0.6-0.3-1.2-0.4-1.8c-0.1-0.6-0.1-1.1,0.1-1.7c0.1-0.3,0.1-0.5,0.2-0.8c0.1-0.2,0.2-0.5,0.3-0.7
				c0.2-0.5,0.7-0.9,1.1-1.3c0.2-0.2,0.4-0.4,0.7-0.5c0.2-0.2,0.5-0.3,0.6-0.4c0.3-0.2,0.6-0.4,0.6-0.3c-0.1-0.5,0.3-1,0.8-1.1
				S180.5,181.8,180.6,182.3z"/>
		</g>
		<path id="XMLID_73_" class="st15" d="M181.3,178.8l0.6,3.7c0.2,0.4-1.1,1.5-1.9,1.6c-1.2,0.2-2.3-0.9-2.3-0.9l-0.6-3.5
			L181.3,178.8z"/>
		<path id="XMLID_72_" class="st15" d="M183.7,173.1c-0.6-3.5-3.9-5.8-7.3-5.2c-3.5,0.6-5.8,3.9-5.2,7.3c0.2,1,1,3.8,1.1,4.4
			c0.4,2.5,1.3,4.2,3.8,3.7c1.1-0.2,4.3-2.3,6-4.6C183.6,176.5,183.9,174.2,183.7,173.1z"/>
		<path id="XMLID_71_" class="st38" d="M185.2,185.6c3.7,2.4,6.3,6.3,7,10.6c0.7,4.3-0.4,8.9-3.1,12.3"/>
		<path id="XMLID_70_" class="st24" d="M187.8,184.2c-1.6-2.8-2.6-5.1-3-8.3c-0.2-1.5-0.3-3-0.9-4.3c-1-2.3-3.3-4-5.9-4.2
			c-2.5-0.2-5.1,1.2-6.3,3.4c-3.1,5.3,1.8,12.8-1.5,18c0.6-0.1,1.2-0.5,1.7-0.9c0.3,1.7-0.2,3.5-1.4,4.9c1-0.1,2-0.4,2.8-1
			c0,0.8-0.3,1.7-0.8,2.3c1.9-0.2,3.8-0.6,5.6-1.2c-0.5-3.1-1-6.2-1.5-9.2c-0.1-0.4-1.4-0.8-2.3-6.2c-0.5-3.3,0.6-3.1,1.2-5.5
			c2.3,6.2,3.9,12.7,4.6,19.3c0.2,2,0.4,4,1.6,5.6c0.1-0.6,0.2-1.3,0.3-1.9c0.9,1.2,2.3,1.8,3.8,1.7c-0.2-0.4-0.5-0.7-0.7-1.1
			c1.7-0.1,3.4-0.7,4.7-1.8c-0.9,0.5-1.8-0.6-2.2-1.5c-0.5-1.3-0.9-2.7-1.2-4c-0.1-0.7-0.2-1.5,0.1-2.2s2-1.2,2.6-0.7"/>
	</g>
	<g id="XMLID_45_">
		<defs>
			<polygon id="XMLID_46_" points="112.8,226.6 115.6,243.7 91.8,240.3 79.9,233.8 77.1,229.2 77.3,219.9 82.4,216.6 95.5,217.7 
				107.8,218.8 			"/>
		</defs>
		<clipPath id="XMLID_129_">
			<use xlink:href="#XMLID_46_"  style="overflow:visible;"/>
		</clipPath>
		<g id="XMLID_47_" class="st39">
			<g id="XMLID_67_">
				<path id="XMLID_68_" class="st40" d="M95.4,230.9c0.8,0.7,1.5,1.5,2.1,2.5c0.6,1-1.2,5.3-3.6,4.6c-2.8-0.8-3.9-6.8-4.5-7.2"/>
			</g>
			<g id="XMLID_64_">
				<path class="st21" d="M93.6,226.1c0,0,0.1-0.2,0.3-0.4c0.1-0.1,0.2-0.3,0.3-0.4c0.1-0.2,0.3-0.3,0.4-0.5
					c0.3-0.3,0.6-0.5,0.9-0.7c0.3-0.1,0.7-0.1,1.1-0.1c0.4,0,0.7,0.1,1.1,0.3c0.4,0.2,0.8,0.4,1.2,0.5c0.4,0.2,0.9,0.3,1.3,0.4
					c0.5,0.2,0.9,0.4,1.4,0.6c0.5,0.2,0.9,0.3,1.4,0.4c0.5,0.1,0.9,0.2,1.4,0.3c0.9,0.2,1.7,0.4,2.4,0.7c0.7,0.3,1.2,0.6,1.6,0.8
					c0.2,0,0.3,0.5,0.3,1c0,0.3,0,0.5,0,0.7c0,0.2,0,0.3,0,0.3c0,0.1,0,0.2-0.1,0.3c0,0,0,0.1-0.1,0.3c-0.1,0.1-0.2,0.4-0.3,0.6
					c-0.2,0.5-0.5,0.9-0.7,0.8c-0.4,0-1.1,0.1-1.8,0c-0.7-0.1-1.6-0.2-2.5-0.4c-0.4-0.1-0.9-0.2-1.4-0.3c-0.5-0.1-1-0.2-1.4-0.2
					c-0.5-0.1-1-0.1-1.5-0.1c-0.5-0.1-0.9-0.1-1.4-0.2c-0.5-0.1-0.9,0-1.3-0.1c-0.4,0-0.8-0.1-1.2-0.2c-0.3-0.1-0.6-0.3-0.9-0.6
					c-0.2-0.2-0.4-0.6-0.5-1c-0.1-0.2-0.1-0.4-0.2-0.6c0-0.2-0.1-0.4-0.1-0.5c-0.1-0.3-0.1-0.5-0.1-0.5c-0.4-0.1-0.6-0.5-0.5-0.8
					C92.8,226.2,93.2,226,93.6,226.1z"/>
			</g>
			<path id="XMLID_63_" class="st18" d="M91.4,224.6l2.6,0.6c0.3,0,0.6,1.1,0.5,1.7c-0.2,0.8-1.2,1.2-1.2,1.2l-2.4-0.6L91.4,224.6z"
				/>
			<path id="XMLID_62_" class="st19" d="M88.4,221.5c-2.4-0.6-4.9,0.9-5.5,3.3c-0.6,2.4,0.9,4.9,3.3,5.5c0.7,0.2,2.8,0.4,3.2,0.5
				c1.7,0.4,3.1,0.3,3.5-1.5c0.2-0.8-0.3-3.4-1.3-5.2C90.6,222.5,89.2,221.7,88.4,221.5z"/>
			<path id="XMLID_61_" class="st41" d="M87.2,229.2c0.7,0.2,1,0.9,0.7,1.5c-0.3,0.7-1.1,1.1-1.8,0.9c-0.7-0.2-1-0.9-0.7-1.5
				C85.7,229.5,86.5,229.1,87.2,229.2z"/>
			<path id="XMLID_60_" class="st41" d="M88.9,226.3c0.7,0.2,1,0.9,0.7,1.5c-0.3,0.7-1.1,1.1-1.8,0.9c-0.7-0.2-1-0.9-0.7-1.5
				C87.3,226.6,88.1,226.2,88.9,226.3z"/>
			<path id="XMLID_59_" class="st29" d="M84.7,229.6c0.9-1.5,1.1-3.5,0.4-5.1c0.3,0.4,0.7,0.8,1,1.3c0.5-0.4,1-0.8,1.5-1.3
				c-0.4-0.5-0.2-1.5,0.5-1.7c0.6-0.2,1.4,0.3,1.5,1c0.5,0.1,1,0.2,1.5,0.3c-0.5-1.4-1.6-2.5-2.9-3.2c-1.3-0.7-2.7-1.1-4.1-1.5
				c-0.9-0.3-1.8-0.2-2.6,0.2c-0.7,0.4-1.1,1.1-1.4,1.8c-0.5,1.2-0.8,2.2-0.9,3.5c-0.1,0.7,0,1.7,0.4,2.3c0.5,0.9,1.6,1.3,2.6,1.6
				C83.1,229.2,84.7,229.6,84.7,229.6z"/>
			<g id="XMLID_56_">
				<path id="XMLID_58_" class="st42" d="M128.9,224.3l2.8-1.5l1.9-1.3l3.8,7.2c0,0-1.5,0.9-2.9-0.7c-1.4-1.7-1.4-1.5-1.4-1.5
					l-2.5,1.4L128.9,224.3z"/>
				
					<ellipse id="XMLID_57_" transform="matrix(7.550332e-02 -0.9971 0.9971 7.550332e-02 -101.0182 340.6359)" class="st42" cx="133.2" cy="224.8" rx="0.8" ry="0.8"/>
			</g>
			<g id="XMLID_53_">
				<path id="XMLID_55_" class="st42" d="M128.1,241.6l2.8,1.6l2.1,0.9l-4.1,7.1c0,0-1.6-0.7-0.9-2.8c0.6-2.1,0.5-2,0.5-2l-2.5-1.4
					L128.1,241.6z"/>
				<path id="XMLID_54_" class="st42" d="M130.6,245.1c0.2,0.4,0,0.9-0.4,1.1c-0.4,0.2-0.9,0.1-1.1-0.3c-0.2-0.4,0-0.9,0.4-1.1
					C129.9,244.6,130.4,244.7,130.6,245.1z"/>
			</g>
			<g id="XMLID_50_">
				<polygon class="st43" points="125.4,244.6 116,240.1 115.4,239.7 106.2,234.2 109.5,226.7 120.6,229.4 119.6,229.7 129.1,224.6 
					130.6,223.8 132.2,226.7 130.8,227.6 121.6,233.2 120.5,233.5 109.2,235.5 112.5,228 118,237.2 117.4,236.8 127.1,240.8 
					128.9,241.6 127.2,245.5 				"/>
			</g>
			<path id="XMLID_49_" class="st27" d="M83.2,229c0.4-1.5,1-2.9,1.6-4.3c0.1-0.2,0.2-0.5,0.5-0.5c0.1,0,0.2,0,0.3,0
				c0.4,0.1,0.8,0.2,1.2,0.4c0.1,0,0.1,0,0.2,0.1c0,0.1,0,0.1,0.1,0.2c0.1,2.1-0.4,4.3-1.4,6.1c-0.2,0.4-0.5,0.8-0.9,1
				c-0.4,0.2-1,0.2-1.2-0.2c-0.1-0.2-0.1-0.5-0.1-0.7c0-0.6,0.1-1.2,0.3-1.8"/>
			<path id="XMLID_48_" class="st44" d="M96.5,224.3c0.8-0.7,1.8-1.2,2.8-1.6c1.1-0.4,3.9-0.9,5.7,0.5c2.2,1.8-1.7,6.2-2.5,7.4
				c-0.4,0.5-2.2,2.6-2.7,3.1"/>
		</g>
	</g>
	<g id="XMLID_24_">
		<defs>
			<path id="XMLID_25_" d="M142.7,269.8c0,0,0.4,3,1.2,4.6c0.8,1.6,3.4,4.9,3.4,4.9l2.8,3.1l1.3,1.4l1.9,14.6l-27.1,5.2l-13.6-0.5
				l1.1-11.2L142.7,269.8z"/>
		</defs>
		<clipPath id="XMLID_130_">
			<use xlink:href="#XMLID_25_"  style="overflow:visible;"/>
		</clipPath>
		<g id="XMLID_26_" class="st45">
			<g id="XMLID_42_">
				<path id="XMLID_44_" class="st46" d="M138.2,285.5c1-0.7,1.8-1.6,2.4-2.7c0.7-1.2,2.3-3.3,3.3-5.6c0.9-2.1,1.2-4.2,1.2-5.8
					c0-0.5,0-1-0.1-1.5"/>
				<path id="XMLID_43_" class="st46" d="M145.1,271.4c0-0.5,0-1-0.1-1.5"/>
			</g>
			<g id="XMLID_39_">
				<path class="st29" d="M135.6,289.3c0,0,0-0.3,0.1-0.6c0-0.2,0.1-0.4,0.1-0.6c0.1-0.2,0.1-0.4,0.2-0.6c0.2-0.4,0.4-0.8,0.6-1.2
					c0.3-0.3,0.6-0.6,1-0.8c0.4-0.2,0.8-0.4,1.2-0.5c0.5-0.1,1-0.2,1.5-0.2c0.5-0.1,1-0.1,1.6,0c0.3,0,0.6,0.1,0.9,0.3
					c0.3,0.1,0.6,0.2,0.9,0.2c2.2,0,4.3-0.8,6-0.9c0.8,0,1.5,0,2,0.1c0.2-0.1,0.5,0.4,0.8,0.9c0.1,0.3,0.2,0.6,0.3,0.7
					c0.1,0.2,0.1,0.3,0.1,0.3c0,0.1,0.1,0.2,0.1,0.3c0,0,0,0.1,0,0.4c0,0.2,0,0.5,0,0.8c0,0.6-0.1,1.1-0.3,1.2
					c-0.4,0.3-1.1,0.6-1.9,0.9c-1.6,0.6-3.8,0.7-5.8,1.5c-0.3,0.1-0.5,0.3-0.7,0.5c-0.2,0.2-0.5,0.5-0.7,0.6c-0.5,0.3-1,0.5-1.5,0.6
					c-0.5,0.1-1,0.3-1.4,0.4c-0.5,0.1-0.9,0.1-1.4,0c-0.4-0.1-0.8-0.2-1.2-0.3c-0.4-0.2-0.7-0.5-1-0.8c-0.2-0.2-0.3-0.3-0.4-0.5
					c-0.1-0.2-0.2-0.4-0.3-0.5c-0.2-0.2-0.3-0.5-0.3-0.5c-0.4,0.1-0.8-0.2-0.9-0.6C134.9,289.8,135.2,289.4,135.6,289.3z"/>
			</g>
			<path id="XMLID_38_" class="st47" d="M133.5,292.4l3-0.6c0.4,0.1,0.8-1.3,0.7-1.9c-0.2-0.9-1.3-1.4-1.3-1.4l-2.8,0.6L133.5,292.4
				z"/>
			<path id="XMLID_37_" class="st19" d="M130,295.8c-2.8,0.6-5.5-1.1-6.1-3.9c-0.6-2.8,1.2-5.5,3.9-6.1c0.8-0.2,3.1-0.4,3.6-0.5
				c2-0.4,3.5-0.2,3.9,1.7c0.2,0.9-0.4,3.8-1.7,5.8C132.6,294.7,130.9,295.6,130,295.8z"/>
			<path id="XMLID_36_" class="st29" d="M146.6,287.6c0,0,6.9-1.8,8.1-1.2c1.2,0.6,1.2,0.6,1.2,0.6l-1.1,3.8l-0.7,0.2
				c0,0-1.5,0.3-5.1,0.5c-3.6,0.2-4.4,0.9-4.4,0.9L146.6,287.6z"/>
			<path id="XMLID_35_" class="st29" d="M146.8,284.2c1.8-0.2,3.4-1.2,4.4-2.7c0.8,0.7,1.7,1.2,2.7,1.5c-1.6,1.6-4.1,2.1-6.2,1.2"/>
			<path id="XMLID_34_" class="st29" d="M144.1,293.7c3.4-1.5,7-2.5,10.6-2.9c-1.7-0.9-3.8-0.9-5.7-0.8c-1.8,0.1-3.8,0.3-5,1.6
				c-0.3,0.3-0.6,0.8-0.6,1.2c0,0.5-1.7,1.1-1.3,1.2"/>
			<path id="XMLID_33_" class="st29" d="M141.7,284.2c-0.2,0.3-0.1,0.7,0.1,0.9c0.2,0.2,0.6,0.3,0.9,0.4c2.6,0.5,5.3-0.1,7.6-1.4
				c0.4-0.2,0.7-0.4,0.9-0.8c0.2-0.4,0.2-0.9,0-1.1c-0.9,0.9-2.2,1.5-3.5,1.7c-1,0.1-2.1,0-3.1-0.1c-1.1,0-2.2,0.1-3.3,0.3"/>
			<path id="XMLID_32_" class="st24" d="M136.8,291.5c5.2-2.5,11-4.6,16.7-5.3c-0.4-1.1-0.6-1.1-1-2.2c-4.6,3.5-12.2,0.9-16.8,4.4
				c1.1,0.5,1.6,1.9,1.2,3"/>
			<path id="XMLID_31_" class="st29" d="M142.4,293.8c2.4-0.4,4.8-0.4,7.2,0c1.9,0.3,4,0.9,5.7,0.1c-0.5-0.5-0.4-1.2-0.3-1.9
				c0.1-0.7,0-1.5-0.6-1.8c-0.2-0.1-0.5-0.1-0.8-0.1c-1.1,0-2.2,0.1-3.3,0.1c-1.4,0-2.9,0.1-4.3,0.5c-1.4,0.4-2.7,1.1-3.6,2.3"/>
			<path id="XMLID_30_" class="st46" d="M139.8,293.8c3.1,1.7,6.8,2.1,10.2,1c2.9-1,5.5-3,7-5.6c0.2-0.4,0.4-0.8,0.6-1.2"/>
			<path id="XMLID_29_" class="st27" d="M125.6,286.8c0.7,2.8,2.7,5.2,5.3,6.5c0.4,0.2,0.7,0.3,1,0.6c0.4,0.5,0.4,1.2,0.1,1.7
				c-0.6,0.8-1.8,0.7-2.7,0.3c-3-1.1-5.4-3.9-5.9-7c-0.1-0.8,0-1.9,0.8-2.2c0.5-0.2,1,0.1,1.3,0.5"/>
			<path id="XMLID_28_" class="st48" d="M122.8,291.7c-1.1,1-2.4,1.7-3.8,2.1c-0.6,0.2-1.3,0.3-1.8,0.8c-0.5,0.5-0.6,1.4,0,1.7
				c0.4,0.2,1,0,1.4-0.2c1.5-0.7,3-1.3,4.4-2c0.1,0.4-0.3,0.7-0.6,0.9c-1.2,0.9-2.3,2-3.3,3.1c-0.1,0.1-0.2,0.3-0.2,0.5
				c0.1,0.2,0.4,0.3,0.6,0.2c2.2-0.3,3.4-2.7,5.5-3.4c-0.8,1.2-1.7,2.5-2.9,3.2c-0.5,0.3-1.3,0.8-1.1,1.4c0.1,0.5,0.7,0.7,1.2,0.5
				c0.5-0.1,0.8-0.5,1.1-0.9c1-1.1,2-2.1,2.9-3.2c-0.7,1.2-1.4,2.3-2.1,3.5c-0.1,0.2-0.3,0.5-0.3,0.8c0,0.3,0.1,0.6,0.4,0.7
				c0.3,0.1,0.6-0.1,0.8-0.3c0.9-0.8,1.3-2.1,1.6-3.3c0.2-0.8,0.5-1.6,0.7-2.4c0-0.1,0.1-0.2,0-0.4c0-0.1-0.2-0.2-0.3-0.3
				c-1.3-0.7-2.4-1.7-3.3-2.8c-0.2-0.2-0.4-0.5-0.7-0.6c-0.3-0.1-0.7,0.1-0.7,0.4"/>
			<path id="XMLID_27_" class="st49" d="M124.2,289.3c-0.4-0.4-1.2-0.4-1.7,0c-0.5,0.4-0.7,1-0.6,1.6c0,0.6,0.3,1.2,0.6,1.7
				c0.8,1.6,2,2.9,3.4,4.1c0.6,0.5,1.2,1,2,1c0.8,0,1.6-0.7,1.4-1.4c-0.1-0.2-0.2-0.4-0.3-0.6c-1.5-2-2.9-4-4.4-6
				c-0.1-0.2-0.4-0.4-0.5-0.2"/>
		</g>
	</g>
	<g id="XMLID_3_">
		<defs>
			<path id="XMLID_4_" d="M231.1,302.9c0,0,0.7,3.8,0.3,6.1c-0.4,2.4-3.8,7.3-3.8,7.3l3,18.8l24.4-5.6l3.2-1.4l0.4-6.6l-5-5.7
				l-7.2-6.2c0,0-8.4-3-9.1-3.3C236.7,306.1,231.1,302.9,231.1,302.9z"/>
		</defs>
		<clipPath id="XMLID_133_">
			<use xlink:href="#XMLID_4_"  style="overflow:visible;"/>
		</clipPath>
		<g id="XMLID_5_" class="st50">
			<path id="XMLID_23_" class="st24" d="M237.6,315.4l4.1,1.6l2.4,1.6l0.9,3.3c0,0,0.6,1.7,0.6,2.2c0,0.5-0.8,2.1-0.8,2.1l-3.8-0.7
				l-4.6-2.6l-1.3-4L237.6,315.4z"/>
			<g id="XMLID_20_">
				<path id="XMLID_22_" class="st51" d="M236.5,312.8c-1.3-0.4-2.6-1-3.6-1.8c-1.2-0.9-3-1-4.5-4.8c-0.5-1.3-0.9-2.4-1.1-3.7
					c-0.2-1-0.3-2-0.3-3.1"/>
				<path id="XMLID_21_" class="st51" d="M226.9,300.7c-0.2-1,0,0,0-1.2"/>
			</g>
			<g id="XMLID_17_">
				<path class="st52" d="M237.8,320.3c0,0,0,0.1-0.1,0.2c-0.1,0.1-0.2,0.4-0.3,0.6c-0.1,0.2-0.3,0.5-0.5,0.8
					c-0.1,0.2-0.2,0.4-0.3,0.5c-0.1,0.1-0.2,0.3-0.3,0.5c-0.4,0.6-0.9,1.2-1.3,1.6c-0.4,0.4-0.8,0.5-1.3,0.5c-0.4,0-0.8-0.1-1.2-0.4
					c-0.4-0.3-0.7-0.7-1.1-1.2c-0.4-0.4-0.8-0.8-1.2-1.1c-0.4-0.3-0.9-0.6-1.3-0.9c-0.1,0-0.1-0.1-0.2-0.1l-0.1-0.2
					c-0.1-0.1-0.2-0.3-0.3-0.4c-0.2-0.3-0.4-0.4-0.6-0.5c-0.4-0.3-0.9-0.5-1.3-0.7c-0.9-0.4-1.8-0.6-2.4-1c-0.7-0.4-1.2-0.8-1.6-1.2
					c-0.1-0.1-0.2-0.1-0.2-0.3c0-0.2,0-0.5,0-0.9c0-0.1,0-0.2,0-0.2c0-0.1,0-0.2,0.1-0.3c0-0.2,0.1-0.4,0.1-0.5
					c0-0.3,0.1-0.4,0.1-0.4c0-0.1,0.1-0.2,0.1-0.3c0,0,0.1-0.1,0.2-0.4c0.1-0.1,0.1-0.3,0.2-0.4c0-0.1,0.1-0.2,0.1-0.3
					c0-0.1,0.1-0.1,0.1-0.2c0.2-0.3,0.3-0.6,0.5-0.7c0.1-0.2,0.2-0.1,0.4-0.2c0.5-0.1,1.2-0.2,2-0.1c0.8,0.1,1.6,0.3,2.6,0.5
					c0.5,0.1,1,0.2,1.5,0.2c0.3,0,0.5,0,0.8-0.1c0.2-0.1,0.3-0.1,0.5-0.2l0.2-0.1c0.1,0,0.1,0,0.2,0c0.5,0,1.1,0,1.6,0.1
					c0.5,0,1.1-0.1,1.6-0.2c0.5-0.1,1.1-0.3,1.6-0.3c0.5,0,0.9,0.1,1.2,0.4c0.3,0.3,0.6,0.5,0.8,1.1c0.2,0.5,0.2,1.3,0.2,2
					c0,0.2,0,0.4,0,0.5c0,0.2,0,0.4,0,0.6c0,0.4-0.1,0.7-0.1,1c0,0.2-0.1,0.5-0.1,0.7c0,0.2,0,0.3,0,0.3
					C238.3,319.2,238.1,319.7,237.8,320.3z"/>
			</g>
			<g id="XMLID_12_">
				<g id="XMLID_14_">
					<path class="st11" d="M232.7,326.6c0,0-0.1,0-0.2,0.1c-0.1,0.1-0.3,0.2-0.6,0.3c-0.5,0.2-1.2,0.5-2,0.8
						c-0.4,0.1-0.9,0.3-1.4,0.4c-0.5,0.1-1,0.2-1.6,0.3c-0.6,0.1-1.1,0.1-1.7,0.1c-0.6,0-1.2-0.1-1.8-0.2c-0.6-0.1-1.2-0.3-1.6-0.5
						c-0.5-0.2-1-0.3-1.4-0.5c-0.9-0.3-1.8-0.8-2.5-1.1c-0.4-0.2-0.7-0.4-1-0.5c-0.1-0.1-0.3-0.2-0.4-0.2c-0.1-0.1-0.2-0.2-0.4-0.2
						c-0.4-0.2-0.6-0.4-0.6-0.4c-0.8-0.5-1-1.6-0.5-2.4s1.6-1,2.4-0.5c0,0,0.1,0,0.1,0.1c0,0,0.2,0.2,0.5,0.4
						c0.1,0.1,0.2,0.1,0.2,0.2c0.1,0.1,0.2,0.1,0.3,0.2c0.2,0.1,0.5,0.3,0.8,0.5c0.6,0.3,1.3,0.6,2.1,0.9c0.4,0.1,0.8,0.3,1.3,0.4
						c0.5,0.1,0.8,0.2,1.2,0.3c0.4,0,0.8,0.1,1.1,0c0.4,0,0.8-0.1,1.1-0.2c0.7-0.2,1.4-0.5,1.9-0.8c0.5-0.3,0.9-0.7,1.2-0.9
						c0.2-0.3,0.4-0.4,0.4-0.4c0.9-1,2.5-1.1,3.6-0.1c1,0.9,1.1,2.5,0.1,3.6C233.2,326.3,233,326.5,232.7,326.6z"/>
				</g>
				<path id="XMLID_13_" class="st53" d="M216.8,323.9c-0.2-0.2-0.5-0.3-0.7-0.5"/>
			</g>
			<path id="XMLID_11_" class="st31" d="M240.4,322.2l-3.3-1c-0.4,0-0.7-1.5-0.5-2.1c0.3-1,1.7-1.5,1.7-1.5l3,0.9L240.4,322.2z"/>
			<path id="XMLID_10_" class="st11" d="M244,326.5c3,0.9,6.3-0.7,7.2-3.8c0.9-3-0.7-6.2-3.8-7.2c-0.9-0.3-3.5-0.7-4-0.9
				c-2.2-0.7-3.9-0.6-4.6,1.5c-0.3,1,0.1,4.3,1.3,6.7C241.2,325,243,326.2,244,326.5z"/>
			<path id="XMLID_9_" class="st52" d="M228.8,322.4l-6-2.2l-15.5-1.7c0,0,1.2-7.5,1.8-8.3c0.6-0.9,14.7,2.6,14.7,2.6
				s-6.5-7.5-8.3-8.5c-1.8-1-3-1.9-3-1.9l2.2-3.4l5.7,3.9l6.2,7l5.3,2L228.8,322.4z"/>
			<path id="XMLID_8_" class="st24" d="M222.8,320.2c0,0,1.5-5.9,2-7.1c0.5-1.2,1.7-3.2,1.7-3.2l-0.7-1c0,0-1.8,2.3-2.4,4.7
				c-0.6,2.4-1.7,6.4-1.7,6.4L222.8,320.2z"/>
			<path id="XMLID_7_" class="st52" d="M236.8,321.2c2.1,2,4.1,4.4,7,4.5c3,0.1,6-1.6,7.4-4.2c0.4-0.8,0.7-1.9,0-2.5
				c1.4,1,2.7,2.1,3.8,3.4c1.1,1.3,1.9,2.9,2,4.6c0,0.3,0,0.5-0.1,0.8c-0.2,0.3-0.5,0.4-0.8,0.4c-0.8,0.1-1.6-0.4-2.4-0.5
				c-1.2-0.1-2.3,0.4-3.4,0.8c-2.4,0.9-5,1.4-7.5,0.9c-0.8-0.2-1.5-0.4-2.3-0.7c-2.2-0.9-3.6-2.6-5.5-3.9c-0.1-0.1,0.1-0.4,0-0.5
				c-0.1-0.3,0-0.4,0.2-0.7c0.2-0.3,0.2-0.7,0.2-1c0-0.4,0-0.8,0.3-1c0.2-0.3,0.8-0.2,0.8,0.2"/>
			<path id="XMLID_6_" class="st36" d="M245,315c0,0-3-1.2-5.2-1.1s-2.2,0.5-2.2,0.5s1.1,4,1.3,5.3c0.3,1.3,2.3,5.3,2.3,5.3l1.2,0.6
				c0,0-0.2-6.1,1.2-8.3C245,315,245,315,245,315z"/>
		</g>
	</g>
</g>
</svg>
